<mxfile host="app.diagrams.net" modified="2023-11-01T03:35:06.563Z" agent="Mozilla/5.0 (Windows NT 10.0; Win64; x64; rv:109.0) Gecko/20100101 Firefox/118.0" etag="tlbRGvJoYoynfohP8AHH" version="22.0.8" type="device" pages="2">
  <diagram name="Page-1" id="46mLKyxmOR19sTO27VdQ">
    <mxGraphModel dx="2284" dy="774" grid="0" gridSize="10" guides="1" tooltips="1" connect="1" arrows="1" fold="1" page="1" pageScale="1" pageWidth="850" pageHeight="1100" math="0" shadow="0">
      <root>
        <mxCell id="0" />
        <mxCell id="1" parent="0" />
        <mxCell id="m8RNqk2MvfK3ll8YLfeU-21" value="" style="rounded=0;whiteSpace=wrap;html=1;fillColor=#dae8fc;strokeColor=#6c8ebf;" vertex="1" parent="1">
          <mxGeometry x="-148" y="713" width="1203" height="230" as="geometry" />
        </mxCell>
        <mxCell id="RKpkV5Lcx-iH9yaTh7Va-63" value="" style="rounded=0;whiteSpace=wrap;html=1;fillColor=#fff2cc;strokeColor=#d6b656;" vertex="1" parent="1">
          <mxGeometry x="-148" y="629" width="280" height="60" as="geometry" />
        </mxCell>
        <mxCell id="RKpkV5Lcx-iH9yaTh7Va-61" value="" style="rounded=0;whiteSpace=wrap;html=1;fillColor=#dae8fc;strokeColor=#6c8ebf;" vertex="1" parent="1">
          <mxGeometry x="-148" y="318" width="1201" height="295" as="geometry" />
        </mxCell>
        <mxCell id="RKpkV5Lcx-iH9yaTh7Va-34" value="Origem" style="rounded=0;whiteSpace=wrap;html=1;fillColor=#e1d5e7;strokeColor=#9673a6;" vertex="1" parent="1">
          <mxGeometry x="-106" y="406" width="120" height="60" as="geometry" />
        </mxCell>
        <mxCell id="RKpkV5Lcx-iH9yaTh7Va-26" value="" style="rounded=0;whiteSpace=wrap;html=1;fillColor=#d5e8d4;strokeColor=#82b366;" vertex="1" parent="1">
          <mxGeometry x="-148" y="178" width="1201" height="125" as="geometry" />
        </mxCell>
        <mxCell id="RKpkV5Lcx-iH9yaTh7Va-25" value="" style="edgeStyle=orthogonalEdgeStyle;rounded=0;orthogonalLoop=1;jettySize=auto;html=1;" edge="1" parent="1" source="RKpkV5Lcx-iH9yaTh7Va-23" target="RKpkV5Lcx-iH9yaTh7Va-18">
          <mxGeometry relative="1" as="geometry" />
        </mxCell>
        <mxCell id="RKpkV5Lcx-iH9yaTh7Va-23" value="&lt;div align=&quot;right&quot;&gt;Cria tabela&lt;/div&gt;&lt;div align=&quot;right&quot;&gt;a partir de&lt;/div&gt;&lt;div align=&quot;right&quot;&gt;export do S3&lt;br&gt;&lt;/div&gt;" style="rounded=0;whiteSpace=wrap;html=1;align=right;fillColor=#e1d5e7;strokeColor=#9673a6;" vertex="1" parent="1">
          <mxGeometry x="727" y="218" width="120" height="60" as="geometry" />
        </mxCell>
        <mxCell id="RKpkV5Lcx-iH9yaTh7Va-19" value="&lt;div&gt;Tabela&amp;nbsp;&lt;/div&gt;&lt;div&gt;DynamoDB&lt;/div&gt;" style="rounded=0;whiteSpace=wrap;html=1;fillColor=#e1d5e7;strokeColor=#9673a6;" vertex="1" parent="1">
          <mxGeometry x="914" y="218" width="120" height="60" as="geometry" />
        </mxCell>
        <mxCell id="RKpkV5Lcx-iH9yaTh7Va-8" value="&lt;div align=&quot;right&quot;&gt;Snapshots&lt;/div&gt;" style="rounded=0;whiteSpace=wrap;html=1;align=right;fillColor=#e1d5e7;strokeColor=#9673a6;" vertex="1" parent="1">
          <mxGeometry x="242" y="218" width="120" height="60" as="geometry" />
        </mxCell>
        <mxCell id="RKpkV5Lcx-iH9yaTh7Va-13" value="" style="edgeStyle=orthogonalEdgeStyle;rounded=0;orthogonalLoop=1;jettySize=auto;html=1;" edge="1" parent="1" source="RKpkV5Lcx-iH9yaTh7Va-3" target="RKpkV5Lcx-iH9yaTh7Va-7">
          <mxGeometry relative="1" as="geometry" />
        </mxCell>
        <mxCell id="RKpkV5Lcx-iH9yaTh7Va-39" value="" style="edgeStyle=orthogonalEdgeStyle;rounded=0;orthogonalLoop=1;jettySize=auto;html=1;dashed=1;" edge="1" parent="1" source="RKpkV5Lcx-iH9yaTh7Va-3" target="RKpkV5Lcx-iH9yaTh7Va-37">
          <mxGeometry relative="1" as="geometry" />
        </mxCell>
        <mxCell id="RKpkV5Lcx-iH9yaTh7Va-3" value="&lt;div align=&quot;right&quot;&gt;Glue Job&amp;nbsp;&lt;/div&gt;&lt;div align=&quot;right&quot;&gt;Snapshots&lt;/div&gt;&lt;div align=&quot;right&quot;&gt;2021 - Ontem&lt;br&gt;&lt;/div&gt;&lt;div align=&quot;right&quot;&gt;&lt;br&gt;&lt;/div&gt;" style="rounded=0;whiteSpace=wrap;html=1;align=right;fillColor=#e1d5e7;strokeColor=#9673a6;" vertex="1" parent="1">
          <mxGeometry x="82" y="218" width="120" height="60" as="geometry" />
        </mxCell>
        <mxCell id="RKpkV5Lcx-iH9yaTh7Va-4" value="" style="sketch=0;points=[[0,0,0],[0.25,0,0],[0.5,0,0],[0.75,0,0],[1,0,0],[0,1,0],[0.25,1,0],[0.5,1,0],[0.75,1,0],[1,1,0],[0,0.25,0],[0,0.5,0],[0,0.75,0],[1,0.25,0],[1,0.5,0],[1,0.75,0]];outlineConnect=0;fontColor=#232F3E;fillColor=#8C4FFF;strokeColor=#ffffff;dashed=0;verticalLabelPosition=bottom;verticalAlign=top;align=center;html=1;fontSize=12;fontStyle=0;aspect=fixed;shape=mxgraph.aws4.resourceIcon;resIcon=mxgraph.aws4.glue;" vertex="1" parent="1">
          <mxGeometry x="82" y="218" width="33" height="33" as="geometry" />
        </mxCell>
        <mxCell id="RKpkV5Lcx-iH9yaTh7Va-14" value="" style="edgeStyle=orthogonalEdgeStyle;rounded=0;orthogonalLoop=1;jettySize=auto;html=1;dashed=1;" edge="1" parent="1" source="RKpkV5Lcx-iH9yaTh7Va-5" target="RKpkV5Lcx-iH9yaTh7Va-8">
          <mxGeometry relative="1" as="geometry" />
        </mxCell>
        <mxCell id="RKpkV5Lcx-iH9yaTh7Va-17" value="" style="edgeStyle=orthogonalEdgeStyle;rounded=0;orthogonalLoop=1;jettySize=auto;html=1;" edge="1" parent="1" source="RKpkV5Lcx-iH9yaTh7Va-5" target="RKpkV5Lcx-iH9yaTh7Va-16">
          <mxGeometry relative="1" as="geometry" />
        </mxCell>
        <mxCell id="RKpkV5Lcx-iH9yaTh7Va-5" value="&lt;div align=&quot;right&quot;&gt;Glue Job&lt;/div&gt;&lt;div align=&quot;right&quot;&gt;Create&amp;nbsp;&lt;/div&gt;&lt;div align=&quot;right&quot;&gt;Aggregations&lt;br&gt;&lt;/div&gt;" style="rounded=0;whiteSpace=wrap;html=1;align=right;fillColor=#e1d5e7;strokeColor=#9673a6;" vertex="1" parent="1">
          <mxGeometry x="400" y="218" width="120" height="60" as="geometry" />
        </mxCell>
        <mxCell id="RKpkV5Lcx-iH9yaTh7Va-6" value="" style="sketch=0;points=[[0,0,0],[0.25,0,0],[0.5,0,0],[0.75,0,0],[1,0,0],[0,1,0],[0.25,1,0],[0.5,1,0],[0.75,1,0],[1,1,0],[0,0.25,0],[0,0.5,0],[0,0.75,0],[1,0.25,0],[1,0.5,0],[1,0.75,0]];outlineConnect=0;fontColor=#232F3E;fillColor=#8C4FFF;strokeColor=#ffffff;dashed=0;verticalLabelPosition=bottom;verticalAlign=top;align=center;html=1;fontSize=12;fontStyle=0;aspect=fixed;shape=mxgraph.aws4.resourceIcon;resIcon=mxgraph.aws4.glue;" vertex="1" parent="1">
          <mxGeometry x="400" y="218" width="33" height="33" as="geometry" />
        </mxCell>
        <mxCell id="RKpkV5Lcx-iH9yaTh7Va-7" value="" style="sketch=0;points=[[0,0,0],[0.25,0,0],[0.5,0,0],[0.75,0,0],[1,0,0],[0,1,0],[0.25,1,0],[0.5,1,0],[0.75,1,0],[1,1,0],[0,0.25,0],[0,0.5,0],[0,0.75,0],[1,0.25,0],[1,0.5,0],[1,0.75,0]];outlineConnect=0;fontColor=#232F3E;fillColor=#7AA116;strokeColor=#ffffff;dashed=0;verticalLabelPosition=bottom;verticalAlign=top;align=center;html=1;fontSize=12;fontStyle=0;aspect=fixed;shape=mxgraph.aws4.resourceIcon;resIcon=mxgraph.aws4.s3;" vertex="1" parent="1">
          <mxGeometry x="242" y="218" width="33" height="33" as="geometry" />
        </mxCell>
        <mxCell id="RKpkV5Lcx-iH9yaTh7Va-15" value="Espelho" style="rounded=0;whiteSpace=wrap;html=1;fillColor=#e1d5e7;strokeColor=#9673a6;" vertex="1" parent="1">
          <mxGeometry x="557" y="218" width="120" height="60" as="geometry" />
        </mxCell>
        <mxCell id="RKpkV5Lcx-iH9yaTh7Va-16" value="" style="sketch=0;points=[[0,0,0],[0.25,0,0],[0.5,0,0],[0.75,0,0],[1,0,0],[0,1,0],[0.25,1,0],[0.5,1,0],[0.75,1,0],[1,1,0],[0,0.25,0],[0,0.5,0],[0,0.75,0],[1,0.25,0],[1,0.5,0],[1,0.75,0]];outlineConnect=0;fontColor=#232F3E;fillColor=#7AA116;strokeColor=#ffffff;dashed=0;verticalLabelPosition=bottom;verticalAlign=top;align=center;html=1;fontSize=12;fontStyle=0;aspect=fixed;shape=mxgraph.aws4.resourceIcon;resIcon=mxgraph.aws4.s3;" vertex="1" parent="1">
          <mxGeometry x="557" y="218" width="33" height="33" as="geometry" />
        </mxCell>
        <mxCell id="RKpkV5Lcx-iH9yaTh7Va-18" value="" style="outlineConnect=0;dashed=0;verticalLabelPosition=bottom;verticalAlign=top;align=center;html=1;shape=mxgraph.aws3.dynamo_db;fillColor=#2E73B8;gradientColor=none;" vertex="1" parent="1">
          <mxGeometry x="914" y="218" width="29.33" height="33" as="geometry" />
        </mxCell>
        <mxCell id="RKpkV5Lcx-iH9yaTh7Va-24" value="" style="edgeStyle=orthogonalEdgeStyle;rounded=0;orthogonalLoop=1;jettySize=auto;html=1;dashed=1;" edge="1" parent="1" source="RKpkV5Lcx-iH9yaTh7Va-22" target="RKpkV5Lcx-iH9yaTh7Va-15">
          <mxGeometry relative="1" as="geometry" />
        </mxCell>
        <mxCell id="RKpkV5Lcx-iH9yaTh7Va-22" value="" style="image;aspect=fixed;html=1;points=[];align=center;fontSize=12;image=img/lib/azure2/storage/Import_Export_Jobs.svg;" vertex="1" parent="1">
          <mxGeometry x="727" y="218" width="35.34" height="37" as="geometry" />
        </mxCell>
        <mxCell id="RKpkV5Lcx-iH9yaTh7Va-27" value="&lt;b&gt;Processamento HistÃ³rico - Carga Inicial - Executa apenas 1 vez&lt;/b&gt;" style="text;html=1;align=center;verticalAlign=middle;resizable=0;points=[];autosize=1;strokeColor=none;fillColor=none;" vertex="1" parent="1">
          <mxGeometry x="-142" y="180" width="376" height="26" as="geometry" />
        </mxCell>
        <mxCell id="RKpkV5Lcx-iH9yaTh7Va-32" value="" style="edgeStyle=orthogonalEdgeStyle;rounded=0;orthogonalLoop=1;jettySize=auto;html=1;" edge="1" parent="1" source="RKpkV5Lcx-iH9yaTh7Va-28" target="RKpkV5Lcx-iH9yaTh7Va-31">
          <mxGeometry relative="1" as="geometry" />
        </mxCell>
        <mxCell id="RKpkV5Lcx-iH9yaTh7Va-28" value="&lt;div align=&quot;right&quot;&gt;Glue Job&amp;nbsp;&lt;/div&gt;&lt;div align=&quot;right&quot;&gt;Snapshots&lt;/div&gt;&lt;div align=&quot;right&quot;&gt;D-1&lt;br&gt;&lt;/div&gt;&lt;div align=&quot;right&quot;&gt;&lt;br&gt;&lt;/div&gt;" style="rounded=0;whiteSpace=wrap;html=1;align=right;fillColor=#e1d5e7;strokeColor=#9673a6;" vertex="1" parent="1">
          <mxGeometry x="82" y="406" width="120" height="60" as="geometry" />
        </mxCell>
        <mxCell id="RKpkV5Lcx-iH9yaTh7Va-40" value="" style="edgeStyle=orthogonalEdgeStyle;rounded=0;orthogonalLoop=1;jettySize=auto;html=1;dashed=1;" edge="1" parent="1" source="RKpkV5Lcx-iH9yaTh7Va-29" target="RKpkV5Lcx-iH9yaTh7Va-34">
          <mxGeometry relative="1" as="geometry" />
        </mxCell>
        <mxCell id="RKpkV5Lcx-iH9yaTh7Va-29" value="" style="sketch=0;points=[[0,0,0],[0.25,0,0],[0.5,0,0],[0.75,0,0],[1,0,0],[0,1,0],[0.25,1,0],[0.5,1,0],[0.75,1,0],[1,1,0],[0,0.25,0],[0,0.5,0],[0,0.75,0],[1,0.25,0],[1,0.5,0],[1,0.75,0]];outlineConnect=0;fontColor=#232F3E;fillColor=#8C4FFF;strokeColor=#ffffff;dashed=0;verticalLabelPosition=bottom;verticalAlign=top;align=center;html=1;fontSize=12;fontStyle=0;aspect=fixed;shape=mxgraph.aws4.resourceIcon;resIcon=mxgraph.aws4.glue;" vertex="1" parent="1">
          <mxGeometry x="82" y="406" width="33" height="33" as="geometry" />
        </mxCell>
        <mxCell id="RKpkV5Lcx-iH9yaTh7Va-30" value="&lt;div align=&quot;right&quot;&gt;Snapshots&lt;/div&gt;" style="rounded=0;whiteSpace=wrap;html=1;align=right;fillColor=#e1d5e7;strokeColor=#9673a6;" vertex="1" parent="1">
          <mxGeometry x="242" y="406" width="120" height="60" as="geometry" />
        </mxCell>
        <mxCell id="RKpkV5Lcx-iH9yaTh7Va-31" value="" style="sketch=0;points=[[0,0,0],[0.25,0,0],[0.5,0,0],[0.75,0,0],[1,0,0],[0,1,0],[0.25,1,0],[0.5,1,0],[0.75,1,0],[1,1,0],[0,0.25,0],[0,0.5,0],[0,0.75,0],[1,0.25,0],[1,0.5,0],[1,0.75,0]];outlineConnect=0;fontColor=#232F3E;fillColor=#7AA116;strokeColor=#ffffff;dashed=0;verticalLabelPosition=bottom;verticalAlign=top;align=center;html=1;fontSize=12;fontStyle=0;aspect=fixed;shape=mxgraph.aws4.resourceIcon;resIcon=mxgraph.aws4.s3;" vertex="1" parent="1">
          <mxGeometry x="242" y="406" width="33" height="33" as="geometry" />
        </mxCell>
        <mxCell id="RKpkV5Lcx-iH9yaTh7Va-33" value="" style="sketch=0;outlineConnect=0;fontColor=#232F3E;gradientColor=none;fillColor=#8C4FFF;strokeColor=none;dashed=0;verticalLabelPosition=bottom;verticalAlign=top;align=center;html=1;fontSize=12;fontStyle=0;aspect=fixed;pointerEvents=1;shape=mxgraph.aws4.glue_data_catalog;" vertex="1" parent="1">
          <mxGeometry x="-106" y="406" width="30.46" height="33" as="geometry" />
        </mxCell>
        <mxCell id="RKpkV5Lcx-iH9yaTh7Va-37" value="Origem" style="rounded=0;whiteSpace=wrap;html=1;fillColor=#e1d5e7;strokeColor=#9673a6;" vertex="1" parent="1">
          <mxGeometry x="-106" y="218" width="120" height="60" as="geometry" />
        </mxCell>
        <mxCell id="RKpkV5Lcx-iH9yaTh7Va-38" value="" style="sketch=0;outlineConnect=0;fontColor=#232F3E;gradientColor=none;fillColor=#8C4FFF;strokeColor=none;dashed=0;verticalLabelPosition=bottom;verticalAlign=top;align=center;html=1;fontSize=12;fontStyle=0;aspect=fixed;pointerEvents=1;shape=mxgraph.aws4.glue_data_catalog;" vertex="1" parent="1">
          <mxGeometry x="-106" y="218" width="30.46" height="33" as="geometry" />
        </mxCell>
        <mxCell id="RKpkV5Lcx-iH9yaTh7Va-46" value="" style="edgeStyle=orthogonalEdgeStyle;rounded=0;orthogonalLoop=1;jettySize=auto;html=1;" edge="1" parent="1" source="RKpkV5Lcx-iH9yaTh7Va-41" target="RKpkV5Lcx-iH9yaTh7Va-45">
          <mxGeometry relative="1" as="geometry" />
        </mxCell>
        <mxCell id="RKpkV5Lcx-iH9yaTh7Va-53" value="" style="edgeStyle=orthogonalEdgeStyle;rounded=0;orthogonalLoop=1;jettySize=auto;html=1;dashed=1;" edge="1" parent="1" source="RKpkV5Lcx-iH9yaTh7Va-41" target="RKpkV5Lcx-iH9yaTh7Va-52">
          <mxGeometry relative="1" as="geometry">
            <Array as="points">
              <mxPoint x="468" y="482" />
              <mxPoint x="468" y="482" />
            </Array>
          </mxGeometry>
        </mxCell>
        <mxCell id="RKpkV5Lcx-iH9yaTh7Va-41" value="&lt;div align=&quot;right&quot;&gt;Glue Job&lt;/div&gt;&lt;div align=&quot;right&quot;&gt;Create&amp;nbsp;&lt;/div&gt;&lt;div align=&quot;right&quot;&gt;Aggregations&lt;br&gt;&lt;/div&gt;" style="rounded=0;whiteSpace=wrap;html=1;align=right;fillColor=#e1d5e7;strokeColor=#9673a6;" vertex="1" parent="1">
          <mxGeometry x="410" y="406" width="120" height="60" as="geometry" />
        </mxCell>
        <mxCell id="RKpkV5Lcx-iH9yaTh7Va-43" value="" style="edgeStyle=orthogonalEdgeStyle;rounded=0;orthogonalLoop=1;jettySize=auto;html=1;dashed=1;" edge="1" parent="1" source="RKpkV5Lcx-iH9yaTh7Va-42" target="RKpkV5Lcx-iH9yaTh7Va-30">
          <mxGeometry relative="1" as="geometry" />
        </mxCell>
        <mxCell id="RKpkV5Lcx-iH9yaTh7Va-42" value="" style="sketch=0;points=[[0,0,0],[0.25,0,0],[0.5,0,0],[0.75,0,0],[1,0,0],[0,1,0],[0.25,1,0],[0.5,1,0],[0.75,1,0],[1,1,0],[0,0.25,0],[0,0.5,0],[0,0.75,0],[1,0.25,0],[1,0.5,0],[1,0.75,0]];outlineConnect=0;fontColor=#232F3E;fillColor=#8C4FFF;strokeColor=#ffffff;dashed=0;verticalLabelPosition=bottom;verticalAlign=top;align=center;html=1;fontSize=12;fontStyle=0;aspect=fixed;shape=mxgraph.aws4.resourceIcon;resIcon=mxgraph.aws4.glue;" vertex="1" parent="1">
          <mxGeometry x="410" y="406" width="33" height="33" as="geometry" />
        </mxCell>
        <mxCell id="RKpkV5Lcx-iH9yaTh7Va-44" value="Diferenca" style="rounded=0;whiteSpace=wrap;html=1;fillColor=#e1d5e7;strokeColor=#9673a6;" vertex="1" parent="1">
          <mxGeometry x="569" y="406" width="120" height="60" as="geometry" />
        </mxCell>
        <mxCell id="RKpkV5Lcx-iH9yaTh7Va-45" value="" style="sketch=0;points=[[0,0,0],[0.25,0,0],[0.5,0,0],[0.75,0,0],[1,0,0],[0,1,0],[0.25,1,0],[0.5,1,0],[0.75,1,0],[1,1,0],[0,0.25,0],[0,0.5,0],[0,0.75,0],[1,0.25,0],[1,0.5,0],[1,0.75,0]];outlineConnect=0;fontColor=#232F3E;fillColor=#7AA116;strokeColor=#ffffff;dashed=0;verticalLabelPosition=bottom;verticalAlign=top;align=center;html=1;fontSize=12;fontStyle=0;aspect=fixed;shape=mxgraph.aws4.resourceIcon;resIcon=mxgraph.aws4.s3;" vertex="1" parent="1">
          <mxGeometry x="569" y="406" width="33" height="33" as="geometry" />
        </mxCell>
        <mxCell id="RKpkV5Lcx-iH9yaTh7Va-60" value="" style="edgeStyle=orthogonalEdgeStyle;rounded=0;orthogonalLoop=1;jettySize=auto;html=1;" edge="1" parent="1" source="RKpkV5Lcx-iH9yaTh7Va-47" target="RKpkV5Lcx-iH9yaTh7Va-59">
          <mxGeometry relative="1" as="geometry" />
        </mxCell>
        <mxCell id="RKpkV5Lcx-iH9yaTh7Va-47" value="&lt;div align=&quot;right&quot;&gt;Upsert&amp;nbsp;&lt;/div&gt;&lt;div align=&quot;right&quot;&gt;DynamoDB&lt;/div&gt;" style="rounded=0;whiteSpace=wrap;html=1;align=right;fillColor=#e1d5e7;strokeColor=#9673a6;" vertex="1" parent="1">
          <mxGeometry x="727" y="341" width="120" height="60" as="geometry" />
        </mxCell>
        <mxCell id="RKpkV5Lcx-iH9yaTh7Va-57" style="edgeStyle=orthogonalEdgeStyle;rounded=0;orthogonalLoop=1;jettySize=auto;html=1;exitX=0;exitY=0.75;exitDx=0;exitDy=0;exitPerimeter=0;dashed=1;" edge="1" parent="1" source="RKpkV5Lcx-iH9yaTh7Va-48" target="RKpkV5Lcx-iH9yaTh7Va-44">
          <mxGeometry relative="1" as="geometry" />
        </mxCell>
        <mxCell id="RKpkV5Lcx-iH9yaTh7Va-48" value="" style="sketch=0;points=[[0,0,0],[0.25,0,0],[0.5,0,0],[0.75,0,0],[1,0,0],[0,1,0],[0.25,1,0],[0.5,1,0],[0.75,1,0],[1,1,0],[0,0.25,0],[0,0.5,0],[0,0.75,0],[1,0.25,0],[1,0.5,0],[1,0.75,0]];outlineConnect=0;fontColor=#232F3E;fillColor=#8C4FFF;strokeColor=#ffffff;dashed=0;verticalLabelPosition=bottom;verticalAlign=top;align=center;html=1;fontSize=12;fontStyle=0;aspect=fixed;shape=mxgraph.aws4.resourceIcon;resIcon=mxgraph.aws4.glue;" vertex="1" parent="1">
          <mxGeometry x="727" y="341" width="33" height="33" as="geometry" />
        </mxCell>
        <mxCell id="m8RNqk2MvfK3ll8YLfeU-63" style="edgeStyle=orthogonalEdgeStyle;rounded=0;orthogonalLoop=1;jettySize=auto;html=1;exitX=0;exitY=0.75;exitDx=0;exitDy=0;entryX=1;entryY=0.25;entryDx=0;entryDy=0;dashed=1;" edge="1" parent="1" source="RKpkV5Lcx-iH9yaTh7Va-49" target="RKpkV5Lcx-iH9yaTh7Va-51">
          <mxGeometry relative="1" as="geometry" />
        </mxCell>
        <mxCell id="RKpkV5Lcx-iH9yaTh7Va-49" value="&lt;div align=&quot;right&quot;&gt;Atualiza&lt;/div&gt;&lt;div align=&quot;right&quot;&gt;Espelho&lt;br&gt;&lt;/div&gt;" style="rounded=0;whiteSpace=wrap;html=1;align=right;fillColor=#e1d5e7;strokeColor=#9673a6;" vertex="1" parent="1">
          <mxGeometry x="727" y="481" width="120" height="60" as="geometry" />
        </mxCell>
        <mxCell id="RKpkV5Lcx-iH9yaTh7Va-55" style="edgeStyle=orthogonalEdgeStyle;rounded=0;orthogonalLoop=1;jettySize=auto;html=1;exitX=0.408;exitY=1.067;exitDx=0;exitDy=0;exitPerimeter=0;entryX=1;entryY=0.75;entryDx=0;entryDy=0;" edge="1" parent="1" source="RKpkV5Lcx-iH9yaTh7Va-49" target="RKpkV5Lcx-iH9yaTh7Va-51">
          <mxGeometry relative="1" as="geometry">
            <Array as="points">
              <mxPoint x="776" y="572" />
            </Array>
          </mxGeometry>
        </mxCell>
        <mxCell id="RKpkV5Lcx-iH9yaTh7Va-56" style="edgeStyle=orthogonalEdgeStyle;rounded=0;orthogonalLoop=1;jettySize=auto;html=1;exitX=0.25;exitY=0;exitDx=0;exitDy=0;exitPerimeter=0;entryX=1;entryY=0.5;entryDx=0;entryDy=0;dashed=1;" edge="1" parent="1" source="RKpkV5Lcx-iH9yaTh7Va-50" target="RKpkV5Lcx-iH9yaTh7Va-44">
          <mxGeometry relative="1" as="geometry" />
        </mxCell>
        <mxCell id="RKpkV5Lcx-iH9yaTh7Va-50" value="" style="sketch=0;points=[[0,0,0],[0.25,0,0],[0.5,0,0],[0.75,0,0],[1,0,0],[0,1,0],[0.25,1,0],[0.5,1,0],[0.75,1,0],[1,1,0],[0,0.25,0],[0,0.5,0],[0,0.75,0],[1,0.25,0],[1,0.5,0],[1,0.75,0]];outlineConnect=0;fontColor=#232F3E;fillColor=#8C4FFF;strokeColor=#ffffff;dashed=0;verticalLabelPosition=bottom;verticalAlign=top;align=center;html=1;fontSize=12;fontStyle=0;aspect=fixed;shape=mxgraph.aws4.resourceIcon;resIcon=mxgraph.aws4.glue;" vertex="1" parent="1">
          <mxGeometry x="727" y="481" width="33" height="33" as="geometry" />
        </mxCell>
        <mxCell id="RKpkV5Lcx-iH9yaTh7Va-51" value="&lt;div&gt;Espelho&lt;/div&gt;" style="rounded=0;whiteSpace=wrap;html=1;fillColor=#e1d5e7;strokeColor=#9673a6;" vertex="1" parent="1">
          <mxGeometry x="451" y="527" width="120" height="60" as="geometry" />
        </mxCell>
        <mxCell id="RKpkV5Lcx-iH9yaTh7Va-52" value="" style="sketch=0;points=[[0,0,0],[0.25,0,0],[0.5,0,0],[0.75,0,0],[1,0,0],[0,1,0],[0.25,1,0],[0.5,1,0],[0.75,1,0],[1,1,0],[0,0.25,0],[0,0.5,0],[0,0.75,0],[1,0.25,0],[1,0.5,0],[1,0.75,0]];outlineConnect=0;fontColor=#232F3E;fillColor=#7AA116;strokeColor=#ffffff;dashed=0;verticalLabelPosition=bottom;verticalAlign=top;align=center;html=1;fontSize=12;fontStyle=0;aspect=fixed;shape=mxgraph.aws4.resourceIcon;resIcon=mxgraph.aws4.s3;" vertex="1" parent="1">
          <mxGeometry x="451" y="527" width="33" height="33" as="geometry" />
        </mxCell>
        <mxCell id="RKpkV5Lcx-iH9yaTh7Va-58" value="&lt;div&gt;Tabela&amp;nbsp;&lt;/div&gt;&lt;div&gt;DynamoDB&lt;/div&gt;" style="rounded=0;whiteSpace=wrap;html=1;fillColor=#e1d5e7;strokeColor=#9673a6;" vertex="1" parent="1">
          <mxGeometry x="924" y="338" width="120" height="60" as="geometry" />
        </mxCell>
        <mxCell id="RKpkV5Lcx-iH9yaTh7Va-59" value="" style="outlineConnect=0;dashed=0;verticalLabelPosition=bottom;verticalAlign=top;align=center;html=1;shape=mxgraph.aws3.dynamo_db;fillColor=#2E73B8;gradientColor=none;" vertex="1" parent="1">
          <mxGeometry x="924" y="338" width="29.33" height="33" as="geometry" />
        </mxCell>
        <mxCell id="RKpkV5Lcx-iH9yaTh7Va-62" value="&lt;b&gt;Processamento Incremental - Carga diÃ¡ria em D-1&lt;/b&gt;" style="text;html=1;align=center;verticalAlign=middle;resizable=0;points=[];autosize=1;strokeColor=none;fillColor=none;" vertex="1" parent="1">
          <mxGeometry x="-146" y="324" width="302" height="26" as="geometry" />
        </mxCell>
        <mxCell id="RKpkV5Lcx-iH9yaTh7Va-67" value="" style="endArrow=none;dashed=1;html=1;rounded=0;strokeColor=#000000;strokeWidth=3;" edge="1" parent="1">
          <mxGeometry width="50" height="50" relative="1" as="geometry">
            <mxPoint x="-110" y="651" as="sourcePoint" />
            <mxPoint x="-1" y="651" as="targetPoint" />
          </mxGeometry>
        </mxCell>
        <mxCell id="RKpkV5Lcx-iH9yaTh7Va-69" value="" style="endArrow=none;html=1;rounded=0;strokeColor=#000000;strokeWidth=3;" edge="1" parent="1">
          <mxGeometry width="50" height="50" relative="1" as="geometry">
            <mxPoint x="-109" y="669" as="sourcePoint" />
            <mxPoint y="669" as="targetPoint" />
          </mxGeometry>
        </mxCell>
        <mxCell id="RKpkV5Lcx-iH9yaTh7Va-70" value="&lt;b&gt;LÃª&lt;/b&gt;" style="text;html=1;align=center;verticalAlign=middle;resizable=0;points=[];autosize=1;strokeColor=none;fillColor=none;" vertex="1" parent="1">
          <mxGeometry x="20.5" y="635" width="32" height="26" as="geometry" />
        </mxCell>
        <mxCell id="RKpkV5Lcx-iH9yaTh7Va-71" value="&lt;b&gt;Escreve&lt;/b&gt;" style="text;html=1;align=center;verticalAlign=middle;resizable=0;points=[];autosize=1;strokeColor=none;fillColor=none;" vertex="1" parent="1">
          <mxGeometry x="7" y="657" width="64" height="26" as="geometry" />
        </mxCell>
        <mxCell id="m8RNqk2MvfK3ll8YLfeU-1" value="&lt;font style=&quot;font-size: 27px;&quot;&gt;&lt;b&gt;Arquitetura para Feature Stores com janelas acumulativas&lt;br&gt;&lt;/b&gt;&lt;/font&gt;" style="text;html=1;strokeColor=none;fillColor=none;align=center;verticalAlign=middle;whiteSpace=wrap;rounded=0;" vertex="1" parent="1">
          <mxGeometry x="-144" y="97" width="1197" height="61" as="geometry" />
        </mxCell>
        <mxCell id="m8RNqk2MvfK3ll8YLfeU-10" value="&lt;div align=&quot;right&quot;&gt;Snapshots&lt;/div&gt;" style="rounded=0;whiteSpace=wrap;html=1;align=right;fillColor=#e1d5e7;strokeColor=#9673a6;" vertex="1" parent="1">
          <mxGeometry x="-133" y="735" width="120" height="60" as="geometry" />
        </mxCell>
        <mxCell id="m8RNqk2MvfK3ll8YLfeU-11" value="" style="sketch=0;points=[[0,0,0],[0.25,0,0],[0.5,0,0],[0.75,0,0],[1,0,0],[0,1,0],[0.25,1,0],[0.5,1,0],[0.75,1,0],[1,1,0],[0,0.25,0],[0,0.5,0],[0,0.75,0],[1,0.25,0],[1,0.5,0],[1,0.75,0]];outlineConnect=0;fontColor=#232F3E;fillColor=#7AA116;strokeColor=#ffffff;dashed=0;verticalLabelPosition=bottom;verticalAlign=top;align=center;html=1;fontSize=12;fontStyle=0;aspect=fixed;shape=mxgraph.aws4.resourceIcon;resIcon=mxgraph.aws4.s3;" vertex="1" parent="1">
          <mxGeometry x="-133" y="735" width="33" height="33" as="geometry" />
        </mxCell>
        <mxCell id="m8RNqk2MvfK3ll8YLfeU-12" value="" style="edgeStyle=orthogonalEdgeStyle;rounded=0;orthogonalLoop=1;jettySize=auto;html=1;" edge="1" parent="1" source="m8RNqk2MvfK3ll8YLfeU-14" target="m8RNqk2MvfK3ll8YLfeU-18">
          <mxGeometry relative="1" as="geometry" />
        </mxCell>
        <mxCell id="m8RNqk2MvfK3ll8YLfeU-13" value="" style="edgeStyle=orthogonalEdgeStyle;rounded=0;orthogonalLoop=1;jettySize=auto;html=1;dashed=1;" edge="1" parent="1" source="m8RNqk2MvfK3ll8YLfeU-14" target="m8RNqk2MvfK3ll8YLfeU-20">
          <mxGeometry relative="1" as="geometry">
            <Array as="points">
              <mxPoint x="93" y="811" />
              <mxPoint x="93" y="811" />
            </Array>
          </mxGeometry>
        </mxCell>
        <mxCell id="m8RNqk2MvfK3ll8YLfeU-14" value="&lt;div align=&quot;right&quot;&gt;Glue Job&lt;/div&gt;&lt;div align=&quot;right&quot;&gt;Create&amp;nbsp;&lt;/div&gt;&lt;div align=&quot;right&quot;&gt;Aggregations&lt;br&gt;&lt;/div&gt;" style="rounded=0;whiteSpace=wrap;html=1;align=right;fillColor=#e1d5e7;strokeColor=#9673a6;" vertex="1" parent="1">
          <mxGeometry x="35" y="735" width="120" height="60" as="geometry" />
        </mxCell>
        <mxCell id="m8RNqk2MvfK3ll8YLfeU-15" value="" style="edgeStyle=orthogonalEdgeStyle;rounded=0;orthogonalLoop=1;jettySize=auto;html=1;dashed=1;" edge="1" parent="1" source="m8RNqk2MvfK3ll8YLfeU-16" target="m8RNqk2MvfK3ll8YLfeU-10">
          <mxGeometry relative="1" as="geometry" />
        </mxCell>
        <mxCell id="m8RNqk2MvfK3ll8YLfeU-16" value="" style="sketch=0;points=[[0,0,0],[0.25,0,0],[0.5,0,0],[0.75,0,0],[1,0,0],[0,1,0],[0.25,1,0],[0.5,1,0],[0.75,1,0],[1,1,0],[0,0.25,0],[0,0.5,0],[0,0.75,0],[1,0.25,0],[1,0.5,0],[1,0.75,0]];outlineConnect=0;fontColor=#232F3E;fillColor=#8C4FFF;strokeColor=#ffffff;dashed=0;verticalLabelPosition=bottom;verticalAlign=top;align=center;html=1;fontSize=12;fontStyle=0;aspect=fixed;shape=mxgraph.aws4.resourceIcon;resIcon=mxgraph.aws4.glue;" vertex="1" parent="1">
          <mxGeometry x="35" y="735" width="33" height="33" as="geometry" />
        </mxCell>
        <mxCell id="m8RNqk2MvfK3ll8YLfeU-17" value="Diferenca" style="rounded=0;whiteSpace=wrap;html=1;fillColor=#e1d5e7;strokeColor=#9673a6;" vertex="1" parent="1">
          <mxGeometry x="194" y="735" width="120" height="60" as="geometry" />
        </mxCell>
        <mxCell id="m8RNqk2MvfK3ll8YLfeU-18" value="" style="sketch=0;points=[[0,0,0],[0.25,0,0],[0.5,0,0],[0.75,0,0],[1,0,0],[0,1,0],[0.25,1,0],[0.5,1,0],[0.75,1,0],[1,1,0],[0,0.25,0],[0,0.5,0],[0,0.75,0],[1,0.25,0],[1,0.5,0],[1,0.75,0]];outlineConnect=0;fontColor=#232F3E;fillColor=#7AA116;strokeColor=#ffffff;dashed=0;verticalLabelPosition=bottom;verticalAlign=top;align=center;html=1;fontSize=12;fontStyle=0;aspect=fixed;shape=mxgraph.aws4.resourceIcon;resIcon=mxgraph.aws4.s3;" vertex="1" parent="1">
          <mxGeometry x="194" y="735" width="33" height="33" as="geometry" />
        </mxCell>
        <mxCell id="m8RNqk2MvfK3ll8YLfeU-19" value="&lt;div&gt;Espelho&lt;/div&gt;" style="rounded=0;whiteSpace=wrap;html=1;fillColor=#e1d5e7;strokeColor=#9673a6;" vertex="1" parent="1">
          <mxGeometry x="76" y="856" width="120" height="60" as="geometry" />
        </mxCell>
        <mxCell id="m8RNqk2MvfK3ll8YLfeU-20" value="" style="sketch=0;points=[[0,0,0],[0.25,0,0],[0.5,0,0],[0.75,0,0],[1,0,0],[0,1,0],[0.25,1,0],[0.5,1,0],[0.75,1,0],[1,1,0],[0,0.25,0],[0,0.5,0],[0,0.75,0],[1,0.25,0],[1,0.5,0],[1,0.75,0]];outlineConnect=0;fontColor=#232F3E;fillColor=#7AA116;strokeColor=#ffffff;dashed=0;verticalLabelPosition=bottom;verticalAlign=top;align=center;html=1;fontSize=12;fontStyle=0;aspect=fixed;shape=mxgraph.aws4.resourceIcon;resIcon=mxgraph.aws4.s3;" vertex="1" parent="1">
          <mxGeometry x="76" y="856" width="33" height="33" as="geometry" />
        </mxCell>
        <mxCell id="m8RNqk2MvfK3ll8YLfeU-22" value="&lt;ul&gt;&lt;li align=&quot;left&quot;&gt;Glue Job consome a Ãºltima partiÃ§Ã£o dos Snapshots (D-1) e a tabela Espelho&lt;/li&gt;&lt;li align=&quot;left&quot;&gt;O job agrega o dado lido do snapshot e cria um DataFrame denominado NOVO, &lt;br&gt;fazendo left join com espelho e atualizando as mÃ©tricas, criando um DataFrame chamado DIFERENCA.&lt;/li&gt;&lt;li align=&quot;left&quot;&gt;O job escreve DIFERENCA no S3&lt;/li&gt;&lt;/ul&gt;" style="text;html=1;align=left;verticalAlign=middle;resizable=0;points=[];autosize=1;strokeColor=none;fillColor=none;" vertex="1" parent="1">
          <mxGeometry x="364.5" y="713" width="625" height="97" as="geometry" />
        </mxCell>
        <mxCell id="m8RNqk2MvfK3ll8YLfeU-23" value="" style="rounded=0;whiteSpace=wrap;html=1;fillColor=#dae8fc;strokeColor=#6c8ebf;" vertex="1" parent="1">
          <mxGeometry x="-148" y="971" width="1212" height="319" as="geometry" />
        </mxCell>
        <mxCell id="m8RNqk2MvfK3ll8YLfeU-35" value="&lt;ul&gt;&lt;li align=&quot;left&quot;&gt;Glue Job consome a tabela Diferenca e a tabela Espelho&lt;/li&gt;&lt;li align=&quot;left&quot;&gt;O job faz um full join entre as duas tabelas, pra realizar um upsert de diferenca em espelho&lt;br&gt;&lt;/li&gt;&lt;li align=&quot;left&quot;&gt;O job sobreescreve ESPELHO no S3&lt;/li&gt;&lt;/ul&gt;" style="text;html=1;align=left;verticalAlign=middle;resizable=0;points=[];autosize=1;strokeColor=none;fillColor=none;" vertex="1" parent="1">
          <mxGeometry x="370" y="977" width="557" height="82" as="geometry" />
        </mxCell>
        <mxCell id="m8RNqk2MvfK3ll8YLfeU-48" value="Diferenca" style="rounded=0;whiteSpace=wrap;html=1;fillColor=#e1d5e7;strokeColor=#9673a6;" vertex="1" parent="1">
          <mxGeometry x="7.5" y="1011" width="120" height="60" as="geometry" />
        </mxCell>
        <mxCell id="m8RNqk2MvfK3ll8YLfeU-49" value="" style="sketch=0;points=[[0,0,0],[0.25,0,0],[0.5,0,0],[0.75,0,0],[1,0,0],[0,1,0],[0.25,1,0],[0.5,1,0],[0.75,1,0],[1,1,0],[0,0.25,0],[0,0.5,0],[0,0.75,0],[1,0.25,0],[1,0.5,0],[1,0.75,0]];outlineConnect=0;fontColor=#232F3E;fillColor=#7AA116;strokeColor=#ffffff;dashed=0;verticalLabelPosition=bottom;verticalAlign=top;align=center;html=1;fontSize=12;fontStyle=0;aspect=fixed;shape=mxgraph.aws4.resourceIcon;resIcon=mxgraph.aws4.s3;" vertex="1" parent="1">
          <mxGeometry x="7.5" y="1011" width="33" height="33" as="geometry" />
        </mxCell>
        <mxCell id="m8RNqk2MvfK3ll8YLfeU-62" style="edgeStyle=orthogonalEdgeStyle;rounded=0;orthogonalLoop=1;jettySize=auto;html=1;exitX=0;exitY=0.75;exitDx=0;exitDy=0;entryX=1;entryY=0.25;entryDx=0;entryDy=0;dashed=1;" edge="1" parent="1" source="m8RNqk2MvfK3ll8YLfeU-51" target="m8RNqk2MvfK3ll8YLfeU-60">
          <mxGeometry relative="1" as="geometry" />
        </mxCell>
        <mxCell id="m8RNqk2MvfK3ll8YLfeU-51" value="&lt;div align=&quot;right&quot;&gt;Atualiza&lt;/div&gt;&lt;div align=&quot;right&quot;&gt;Espelho&lt;br&gt;&lt;/div&gt;" style="rounded=0;whiteSpace=wrap;html=1;align=right;fillColor=#e1d5e7;strokeColor=#9673a6;" vertex="1" parent="1">
          <mxGeometry x="165.5" y="1086" width="120" height="60" as="geometry" />
        </mxCell>
        <mxCell id="m8RNqk2MvfK3ll8YLfeU-52" style="edgeStyle=orthogonalEdgeStyle;rounded=0;orthogonalLoop=1;jettySize=auto;html=1;exitX=0.408;exitY=1.067;exitDx=0;exitDy=0;exitPerimeter=0;entryX=1;entryY=0.75;entryDx=0;entryDy=0;" edge="1" parent="1" source="m8RNqk2MvfK3ll8YLfeU-51">
          <mxGeometry relative="1" as="geometry">
            <mxPoint x="9.5" y="1177" as="targetPoint" />
            <Array as="points">
              <mxPoint x="214.5" y="1177" />
            </Array>
          </mxGeometry>
        </mxCell>
        <mxCell id="m8RNqk2MvfK3ll8YLfeU-53" style="edgeStyle=orthogonalEdgeStyle;rounded=0;orthogonalLoop=1;jettySize=auto;html=1;exitX=0.25;exitY=0;exitDx=0;exitDy=0;exitPerimeter=0;entryX=1;entryY=0.5;entryDx=0;entryDy=0;dashed=1;" edge="1" parent="1" source="m8RNqk2MvfK3ll8YLfeU-54" target="m8RNqk2MvfK3ll8YLfeU-48">
          <mxGeometry relative="1" as="geometry" />
        </mxCell>
        <mxCell id="m8RNqk2MvfK3ll8YLfeU-54" value="" style="sketch=0;points=[[0,0,0],[0.25,0,0],[0.5,0,0],[0.75,0,0],[1,0,0],[0,1,0],[0.25,1,0],[0.5,1,0],[0.75,1,0],[1,1,0],[0,0.25,0],[0,0.5,0],[0,0.75,0],[1,0.25,0],[1,0.5,0],[1,0.75,0]];outlineConnect=0;fontColor=#232F3E;fillColor=#8C4FFF;strokeColor=#ffffff;dashed=0;verticalLabelPosition=bottom;verticalAlign=top;align=center;html=1;fontSize=12;fontStyle=0;aspect=fixed;shape=mxgraph.aws4.resourceIcon;resIcon=mxgraph.aws4.glue;" vertex="1" parent="1">
          <mxGeometry x="165.5" y="1086" width="33" height="33" as="geometry" />
        </mxCell>
        <mxCell id="m8RNqk2MvfK3ll8YLfeU-60" value="&lt;div&gt;Espelho&lt;/div&gt;" style="rounded=0;whiteSpace=wrap;html=1;fillColor=#e1d5e7;strokeColor=#9673a6;" vertex="1" parent="1">
          <mxGeometry x="-110" y="1133" width="120" height="60" as="geometry" />
        </mxCell>
        <mxCell id="m8RNqk2MvfK3ll8YLfeU-61" value="" style="sketch=0;points=[[0,0,0],[0.25,0,0],[0.5,0,0],[0.75,0,0],[1,0,0],[0,1,0],[0.25,1,0],[0.5,1,0],[0.75,1,0],[1,1,0],[0,0.25,0],[0,0.5,0],[0,0.75,0],[1,0.25,0],[1,0.5,0],[1,0.75,0]];outlineConnect=0;fontColor=#232F3E;fillColor=#7AA116;strokeColor=#ffffff;dashed=0;verticalLabelPosition=bottom;verticalAlign=top;align=center;html=1;fontSize=12;fontStyle=0;aspect=fixed;shape=mxgraph.aws4.resourceIcon;resIcon=mxgraph.aws4.s3;" vertex="1" parent="1">
          <mxGeometry x="-110" y="1133" width="33" height="33" as="geometry" />
        </mxCell>
        <mxCell id="m8RNqk2MvfK3ll8YLfeU-64" value="" style="shape=image;verticalLabelPosition=bottom;labelBackgroundColor=default;verticalAlign=top;aspect=fixed;imageAspect=0;image=data:image/png,iVBORw0KGgoAAAANSUhEUgAAAk8AAADcCAYAAABpqkWqAAAgAElEQVR4Xu29a7BdxXUu+uXHvVW5IDmwt2SEKVn7WA8Qlo7E2RKYQmdbWFClEhbaJraKkCiBlITLJGALcFXimwLKJqkiwDXk2GWgYnJ0kV2AbT2CSlVGIO8jlwzaCpIlhNDDRzJlUIzWBhuZk1snP3K7e766e3bP15pr7fX49h/Emv0Y/fXo2d8cY3SP37t0/tL/AP+IABEgAkSACBABIlAjAtOnD+Lddxs1ttg5Tf0eyVPnTAYlIQJEgAgQASLQKwiQPPXKTHIcRIAIEAEiQASIQFsQIHlqC8zshAgQASJABIgAEegVBEieemUm+2Ycd2PLa5fj4BW34YG+GTMHSgSIABEgAp2EAMlTJ83GZMpy/3dxcPVMJcG5/U9g2YbnQ2k6iax8Hk+O3Y5pu1dg9P7JBIt9EwEiQASIQD8jQPLUz7PvGPu6J7diPTZ3JHmSsm0c3INFn3uEs0YEiAARIAJEYNIQIHnyQi8sLmMX4ezEYiydJQv9DvseWYMNm+W/AwvI0ilB5dhSc8vfY8/dA9iluZTu+9EuLDoUWErU5j98fljpAB4duReb8qZetbkYQVdvYUvctikDTu+MScV9P9qKjzXew9JhhyVJszDhXFoGH3k6u/9C0Z6UvQAOeWOq9FyO9xbgyWgOKjXCSkSACBABIkAEmkaA5CmLPL22EoOhC0u3ekhCtKIRubZMV5JOlgDN5SVJy/KJmDAVs6JYLjO9DfnvhUecVhgpw+hARIxkG8twVhI/CCK2AXgqJG0uGdzkaSWGQnJWFAcvrDPuwdGll5iP39mNy8a3ZSuzJJGa7E1rPhsgAkSACBABIlARAZKnTPKkBSbHZOWtlAXEIBw6qdH+nSIlRciAbiWK5IysRZFFymE9MgkcEP3/los1y1fUnmaxkj/luu2K4lBRIb3ViuBVd59sjwgQASJABIiAAwGSp7rJk3LprcTbI7cB0n32w8DNVJk8eaxLsdgOEmWSp8QyJsmTGc+UHnzLyRMtT3wREQEiQASIQJcjQPJUmjw9oiw5idtOusVWAtuTE2CSgIy+swdYfhG2RHFNlttOudaQxCm5xdBcbirWyvdnuvcM8qTHYTlisuwWi5OnfBzqXRuMeaoXT7ZGBIgAESACVREgeSpISGDEGAWEaSisax7tFz+G1iAYR/4D99norKhSwYBxy3UX9WUEn4smdRmMfowAbytoXdQ7FZI+uz0pZfDMEXcVW8NycKiqlZ56xeLEau6UzREBIkAEiAARsBAgeepBlbBjnnpniLznqXfmkiMhAkSACHQvAiRPkzx3LotPIJJ+JUA5IXuXPEkcOunSznLzwtJEgAgQASLQGwiQPPXGPHIURIAIEAEiQASIQJsQIHlqE9DshggQASJABIgAEegNBEiePPPYy8D0hupyFESACBABIkAEJgeBXuYIv3fp/KX/URXWXgamKiasRwSIABEgAkSACAC9zBFInqjhRIAIEAEiQASIQO0IkDzRbVe7UhkNhndeNbRLRLM7TF86WlTAW+f9Hb6IH+DKY/9SqIo66TjvRLEEzYVaZCEiQASIABHoBwRInvqKPGmXWlo58dI3i9ek/u0iTzLty/wP8NBLT+Jpp+jpKw6yyJN+0WjqEtSaoGEzRIAIEAEi0J0IkDz1FXkKB+tIstsy8tSWdXEjXrjxKpx96a9w6+98HZa4H4pJiNsya+yECBABItCtCJA8dQh58lo6jPQsycWZKn8eTmBweDGmyDGc1vPkBTdxL1UPkhQs8VC95OkEGqI9lXZGb8+Q4S1sueI2PJCj8WaKGFMG42JQzQKm/x6ljQm6EcRn7CKcnViMpbPk/1sXiEqr0yUncNn4NksqEwcgkt1vgVMNGKl4tCajJMzqJw0HVX4C+waEfApzHSPPXMi2bgKOOutYaXQ0jExci81Ft76cKDcRIAJEoFMRIHnyzEw7gTGtPnoKEn8y3IBovBcSGTNtiXnDuCO5sIc8bRwG9j2yBhs2a3UgNvm7B7ArIkxWguMiim3IY9V35atL35AekJ3BMFegXefrS76Jxb/6Mm44Y0qTTuB8OQ7qxM/GwSBHUVs64dLq6+NQ5PLCELuA+KzHZizb8LzKZ7joUJQ02sZ1MaJYMEPWohj7SF6RSWEZIkAEiAARqIxAOzlCZSErVuyS03a2dSQYbWR5iSwNpiXG3KBl+WTDnmkkLQ5asyw1uW47jbTNkVaVI1j0uUfCaSjh/gpr6AQi5R50yOImTxZx0WRykydbTofcPveci5RYCZrV0CKLkJfEmImTjbmQpHQD8NTIvdhkzJ9NuEztT6XzMSyOFVcKqxEBIkAEiEApBEiePHC1Dxi/dUkXzSZRNglJLBeSPFkWFnuMJE8BImXJk0EiNVAzyZNnLqy+/dYqrR9lGZuDo8o6KH6n5anUy46FiQARIAJ1IdA+jlCXxMXb6RLLUxjfMrhHs+64B6lvsCZ5Ml1zprvK0VYZ8mS57dIn1ELrSoYFJMttp0gh9HgtWK4uKb9lNbJJgzPmKe3KHJ1lxQiVIU9KhmU4GxEXHdYMEuOdiwzy5D0FqMhT5EINLZYTJnbFlwdLEgEiQASIQFUESJ4m3fIkBSgQ2KzkTDZ/232TCrAWMUIq8Fv+Re4lV0xPSHrScVe3AE8GFg6zLztIuSR5EuIYQc/eYGgpeORuzCFP8Jy201xtp7bvBFaHVqAMHBRePjJkue7iKwwyLUCW606fC4/bToqQj5HAZv97WDqou1SrvgZYjwgQASJABMogQPLUEeSpzJQFZbvnaoFibsnyCFg1cu95aroHNkAEiAARIAJEQCFA8kTy1IKlYFpb2nXJZNkbxlswcDZJBIgAESACfYAAyVOXkqc+0E0OkQgQASJABIhARyJA8kTy1JGKSaGIABEgAkSACHQqAiRPk0yeenkCOlXpKRcRIAJEgAgQgWYQ6OW9uyuuKujlCWhGMVmXCBABIkAEiECnItDLezfJU6dqHeUiAkSACBABItDFCJA80W1XTH3VHUcolBS4WIMs1SoEBh79MT6Df8JzG7/Xqi5qb/eWp1bhzkvP4PFlr4msgPxLIzCEZw8uAbY9h7X3tRYfzgXQjWuotVrB1m0ESJ5InoqtCg958t03lc5Pp3djXRyZm59Nv0TUvqSzmPhFSxmXU9o5AYs20q5yrss5v/p9/PmyCWz97F9gIpLj5gXYcddHcfyxceC2Ecw9PoZVd/y2XVLG/Xxtyxew8JB78y+7Ya/91gp8ae6v8e3vijvP1Nh24Svfrz6krz67GqtwECOHL8HYDcCOq/bioerNVav5x1dg1+3A004C2SryJNv9OA4t+gkeDKXOmgs5h6vD23fPjb+IFevfrzbWttWaiU2vLAJe2I7XF4RzvPatAr3/ET71z3+JP9jzKexsuyIUEI9FJh0BkieSp6aUsDx5CojT4P4nsGzD8yX7Lp+UuGQHRmoYb5qUso22qnyKPP01Vu7+NH7z7evxMx1aRZ6mYOyqI5jxYmeSp7IQKfI0eBwjWz8SEsPmydNIQ5DKM5d3KHkqi1DR8mny5K2ZSe6K9tfucpI8zcWEINdn1pQhT0LOz/83fOFLAzi4/GYcb7fY7K/jESB5InlyJ8iNc6/twzVjt2PpFAmUZvVxpTjRLDXK8tQ4gMHhxZBVjVQmyyfw6Mi92JTC3rRImSlnZOE0efKmlZE5+TYMoIGZGJrylkhlciGWDp8P1eYJ8ewm4OjA4tS4DIuZkUtOdG+M2UyVM4oT8VihW9KslC7RmFQ/As+hWTMFNgfQEDgNxalqzHQ9Bg427npf0up0+WH845/+rYlsTJ72AsLC8snD27HuG2GRBz6NV2+cHpePrAmmlcjcYHXrA/AutodWC2mxWI0zGFgyW805To3jytFTgNVH0FlUL7CozJI/nTtpuu2seqc1l1VMntZCbI6X4PUmLUXS8qTI009nYsdtos3rDuPZEBVzvB9i/8M7cMczFumQsi78ZTBeSTLuCTGQw9IsNF/bsgoXNz7E8JIA8+AZ8K0912FYgZb8RfWUJWjJeeqBjoH8f99cpJaW8cMFVn8F5kLW18eot2eMN9GHoPwH2D84Oxyb9gymDPG4ZFtibR5z1hFLUMNC1xc/Dgl5euWaFViH8VJW17n//Wf4xBFan7L1qT+fkjx55r1dwLSrn2z1FqRk7CJsEYRmSG7qhwTBgIhxWqjnTXNbfbIsT3EiXo2EnHpyK9aLqJa01clM5BsQJTsRb0nydPdiNLY/gbPLBfkTCXQfbSwL+h5bKhLsymdinPcHeeRWNAJLmE6elOUpTtjsyK8XkkDIcsPvhfFgGQmENfIHmRB54AAe3T2AjasvxL5H9mDa3UHuPflMzYGQzcTBatuyPJV+0atNbyp2a+TnVuxVrpgs8mTokrahBhvbhyGZkuRiPhqKaAQ1stx2inB4XVaydgkLSY3vcjWmwTcCUqQ2/KuBJ3LIU4qoRHVCsjMYkkQL/zwMMvHLIjcWHrKd5Y3I5ebA1Z4LiwwGzemES3P7SX249oOABCvye15INgPi49evUFcQEM+JkCgbsuptZ82xj+RV0AsZ+7Rm4CfpD5IKbbFKbyHQGXt3azDlabvCuEbEQJClsWXis28zRt9ZiT0X79RITnnyZBKAhBhERMUUL91+Om6qJHlSiXel5SxIcvzTkZC4SfLkScrrS8irkgWvnmmKHFqKJHlKCKGVyy9loQssVjFBikmqCMZ/TWIk5kBP6qx6DBMkz7EIbZPkSd/MZC/Zm1uyQRpf/7JiaGEy29OJRkXylNq0dctFYeVuoqA9hqLkSbOmqd4ja5VNIC3ikkMgXeTJNxf+QdtkqQB5ihpzkRKXVTGyIHpJjI2PhpEkTxqJ9uukOcLyOBRUC581t2B1FutdBEiePHPbLmDa1U+2Cocb/u4TmHbxv+Ls4EV4uzEHi95ZE1o/ZO16yJO0PCXWHF2qziFPAemzYrNcwdmh+F7X4ebAmnbZsSi+KxljNnkKiOYD9qTZMkwGeVKEZgaORRYly/IUWRZMK00V8hS4dea9mWEhafl7uRp5Ui4k4R5KW6tqJk8Zc9FW8hS5K+1OM8mTGaQeV7UIZCHyVAmHYsrDU3fFcOrHUp2xd7cGeVqePLgG1hXz1FoQg3MAZ394L96+aStWDJyPxu7IdZRNnlxkyLQaacQotMRELrNERMttp8rNwdFH1mBDfHbdbXmK+ldutmEIF5ioo2KeqlmeIotZ0F6+Oy6PPE0LcdTb85OnwCrltM4ZMVhhfFiRmCff+tLdIKGVB2F8ju4uCeJJQquP4WoK41YaAVEoYnlK3EWWUCmrS9D24MvB6TzTJZj3wnBgk1fF81zHIZABWsxT5JYMLSmhBS7latJcV5nuUNuNZ8mUsjxlzIV/uCauxtxGlXwWMCcZSrtn474z3Gem61CTNoM8eU8BVsKhmEKUdoUXa5alegABkifPJLYLmHb1ow/TRZ4MoqBcVDIORxIX61oB2VAc2ByRqpUiIkX+he4lQXa85EkW8wU9W78ngdJZMmjPTh/AvoE5ykVXB3kSx22U5SgiP7brLgqC95MnMVbN3RcEhovTO5luO2lxssar4Z24FQX53Q6MGnFpntN23heVHrT7LvaPn4d5YcyTHvR8bvwkJpZMjY+zJ8G5wh01LoKfB4NA6TzyZAZS62QsCa5WojoCzW0Zst+9YcC9+BhwH0wo8ebWXYenTorg5xlhzJMevGziYIzTqpMXS+a6CsAMhpaym27A4OoAS4asIWquttPbxPUVN4ZWIFdsUzQXsj0fGfIcOvCWV7JZrrvI1ZdBnmQtAwvtgIFPJ0vMdLooT9s1BV+vV56MvbtdmNLy1C6k2U/nIOC656mgdHYMVMFqHVlMkUzsxKLPPVKjfOk4rhobZ1MdhQDveeqo6ehAYUiePJPSLmDa1U8H6h5FahECVeM0eoI8RdbL3ItXq4DfHeQpFTwdDzWxWFUZfT/VqbqG+gmjfh9rL+/dtDz1u3Zz/ESACBABIkAEWoAAyRMtTy1QKzZJBIgAESACRKB3ESB5InnqXe3myIgAESACRIAItAABkieSpxaoFZskAkSACBABItC7CJA8kTz1rnZzZESACBABIkAEWoAAyRPJUzG1UvcViRQirpuvi7XAUm1CgCeF2gR05W6CO46gJTqu3FTXVpR3ki3AL5bfjONdOwYK3s8IkDyRPBXTfw95ykoMnOS2s7uwLoHMPVYeXnqoss6bN6MXE754KSO3nXbpZ/EW2ljSlTLGdc/TzQuw466P4vhj4kLE20Yw9/hYqczytYyoZhnWfmsFvjT31/j2d4F1amy78JXv1yJpzY24rjfIIE/GRZXtzuVXbeiV56KJO8mqScpaRKA+BEieSJ6a0qby5MnKGVeqd3d+vVJN5BTWb0ZXt67PO9H8LdV1Cqi3lSJPnhvGFXGZgrGrjmDGi5NJnuqTQW3Yg8cxsvUjITHsJvLkVwhX8t9WqU9d7TYzFzL9yaKJf8BzG79Xlzhshwi0BQGSJ5KnIF2KygN3LzZFeMS/7cM1IkXJUtvqY6dYUfWs9CyNAxgcXgxZNUplotKVLJ/wEBLTIpWkZ4mEcue2W4/NWLbheVEoTHAcp2cZQAMzMTTlLezbfyGWDp8P1eYJMd6bgKMDi1PjMtLKGLnkRPPGmBMLmCRZozgRjxW6JU1LzyJHEY0pyCX4FoZmzRTYyLQtizEUp2HRLW1JHYWCL7WNfObLAB+Tp73As6vxycPbse4bAabmhYq6pcNMn3E6dDGpizQHPxTZNaZjiko9MhvDU9ypVs6FefJURxkyVHnTxRv2WmDTK5fg9av24iHVkJ5yRgIeJeiVz9xjUoQF72KWGFOQBmY2ZkWpP6zUIxEOeTKbKVWSyyl1vNNt+S7hNMeU1AvLvylS5CyZrkTSMXelepFlvrZlFS5uuOv4MFKpVm4M+pB/uuz+uchDSTyXKVDWAS999i8wUaA4ixCBTkGA5MkzE+0Cpl39ZCucICVjF2GLIE9DclM/JAgGBMkx8qa5rT5Zlqc4+bBGQk4JopGQHV0qK4+cyu+2DGcLJAb2kqe7F6Ox/QmcXS7I38ROPNpYFvQ9tlQkHZbPgsTHkshEiXhTlqfBPWGKD2v8GglEwQTCUGO6PM5tNzogcq/tHsBGlUdwD6bdnTxLXJ46DhYmluWpfBJTSSZc2e3N5LHBhhokwd07IpPjfojtD3+A5ffMxsS2F9G49uo431syo5N0G7c3Ga1/TO/cJBIfD57E4y9PxZ0qie8bGLzHhYsPL3N1KYI0+IbK9xeQuTQ+toUpnb8uIULpfHhRQmIzMXMwT4HcpyXJjfIUhoQySrKs+pLjXfYaNjuS6kbl/O+MYjgU2+TK5mMs1ipLEYFWI9AZe3drRskbxgvjGm3qR7BobBlwbDNG31mJPRfvDC06sqHy5MkkAAkxiIiKKV66fTO5sFsGb1JeRNY0aTm7RSUL/ulISNwkedIsbXobRsyTngDZsiAp2cPnkjw5CZxIkJyyFIUxW0iRVBGMr4iVmIPXokTLEUKhRW+ORWibJk+RRcNO25HeHKMNfPvF4aY8NoRdtwNPLzuFq2NyYCV71RLYFlbFZgtGMUNa0tigSf+YDi0UlqdDz2EthHVloUxyLAx0EalMJcvNi0OyyVIx8hTI6I+PmmXgEs1XMUtVVDWyFnmTE1tJeY0uS+NQdCJlDrk/E+bD6/EzaTzmHxHoEgRInjwT1S5g2tVPtj6G7q7dJzDt4n/F2cGL8HZjDha9s0ZZZoK/esiTtDxtjK05ulSdQ54C0mfFZrmCs0PxvQRuc2BNu+zYEyEJNS1PpoVPJ08B0XzAnjRbhqbJU9SBTaKqkSdlwUHkJpsky1M0pBSJqkKefo6L91yHeW++iBXr33cSsPS6agV5clnBfGQr6/dA2vLkKdCPcjgU3QF56q4oUizXWQh0xt7dGkxoefLgGlhXzFNrQQzOAZz94b14+6atWDFwPhq7A7dWHnlykSHTaqQRozBmJ3KZJSJabjtVbg6OFnDbRf2rAO9hCBfYGmxowvIUWcyC9t4Lr2dwuRED6fPI07QQR709v+XpNshnTuucEYMVxofp8VW+mKeC6yvZVC0XlyIiM3AsdNspd5DD8iTJ0/JGSDRUjIx0ge3AHc/kC+DSyfxaeSV0wuQfk5TbbXkKyFPkxgrilYTLUrjFHszoWuIY4RDUQQoHd2C430oV42r06yeopuvQFNZLnsKYsPQVCiZ2RXHImx31nDFPhWBioc5DgOTJMyftAqZd/ejDdG1UBlFQLioZhyNIyGbrWgHZkO7OUhapyM1kBYwrC46sYFmVfEHP1u9JwHiWDNqz0wewb2COctHVQZ6CAPTbEZEfFey+emYMZRQE7ydPoqhWJwgMH4hjntyWJ2lxssar4Z24FQX53Q6MGnFpJeNHbFeM7uqynhkB4x7ydAckyZqtDghABZPPcMRCuRecQXylu7PinxkAbwZQwzOmmEy43HZaoHQQTD5VxRRlkSe9n3Pj4zh26fwYh3Rsk+4y9ZEhyx0az1OWdc8KnBcB8RHp85MnAboHIz1gvDAOBeaQp+0KgMQiHYnAZOzd7QKClqd2Ic1+OgeBbr07h5ewdo4OtUuSbtXVduHDfjoaAZKnPrQ8dbRGUrimEeiuG8ajaxlae/lp06AaDdiB8dpD42qEenvtrdYY69Rb89l/oyF5InnqP63niIkAESACRIAINIEAyRPJUxPqw6pEgAgQASJABPoPAZInkqf+03qOmAgQASJABIhAEwiQPJE8NaE+rEoEiAARIAJEoP8QIHkieeo/reeIiQARIAJEgAg0gQDJE8lTMfXhUfJiOHVAqck9bWffRt0BgLRSBHUPFHIvzmxehOCEX/oCy+Zb7p4WmMqle+aq9yUleSJ5KqblHvKUlRg4yW1nd2FdAqnfku2UJjrOLh+29ki7kdsOyaWfxUBqcylXyhjX3Tk3L8COuz6K44+NA7eNYO7xMay647f1CJtKxFuePH312dVYhYMYOXwJxm4Adly1Fw9Vlm4mNr2yCHhhO15fELa79q3KrZkVHZdStog8ycs+k8S+Uoos8qRfnWDnKaxp6HU3U1Un5Y3kXxIXzS6/GcfrlontEYESCJA8kTyVUJd00fLkycoZV6p3d369Uk3kFNbTyqhbr+edwKMj92JTnZ3U1VaKPHluGFcb1RSMXXUEM15sNXkqPzhJnkYagtCdubwm8jQXE4/twpk1bSBP5YdbqEaaPPmrlSlbqPN2FGpCJ6Vldc3AT/CPf/q37ZCUfRABJwIkTyRPgEyLsgF4SicJ8W/7cI1IUbJU5dzQrD52ihWFo5WepXEAg8OLVbqOKJWJSleyfMJDSEyLVJKeJZqkNHnypkZRue0G0MBMDE15C/v2X4ilw+dDtXlCPLsJODqwODUuIyefkUtOyGCMOcFCyjCKE/FYoVvSrJQu0ZiCXIJvYWjWTIGNTNuyGENxGhbd0iYynUiZ7w8x8KW2kY99ue3ijWovIIjKJw9vx7pvhAliRdqOWUPTEaTcmI1ZRuqP6zCs5h2I0rOo/7HTukQXQxqpTKJkuqHc2jO7vZg8/XQmdojUfpuuO4xnK7+wpeUpIE+vXLMC60SiYmVlkzLfPhUTmI5ZU97F/vHzMLzkvGRcunx6mhohh5lSJbLs6OlPktQnLnzOjVtY+MZmYRTV01POGPMQtuPOk2fKrcsQkK0zwXzLNvTxenD42pZVuLjxocBsuurVHJOZCiZ+ZumJUcejk8WmnRdsFsOJpVqJAMmTB912AdOufrKVSJCSsYuwRZCnIbmpy5x0ECTHyJvmtvpkWZ7i5MMaCTkliMZ6bMayDc9bIll55FR+t2U4WyAxcNKebOOWJLfd3YvR2P4Ezi4X5G9iJx5tLAv6Hlsqkg7LZwEpkUQmSsSbsjwN7sGizz0iZLXGr5FAFEwgrLchk/+ODhzAo7sHsFHlEdyDaXdfbua9E7IFdSIcLEwsy5PME/aJI5/CzoI+L0UKBk/i8Zen4k6VxPcNDN7zcZW7DeKZSpZ7n5RBuoXmo6GS/Or/Fo9SbjvBMVMuJ1v79IS9rXy9aW2HG/nEthfRuFaQwsY4Hm/MD1xjcZLj14R2BPLfOfgGrhw9ZfwbcOWSyxtLVv45W76p2B3mzXNhaJMkO4+fai0ksmb97MS+cbsnJMEEnl6WxiHWFflMYZnIqidC9s9mQRwKqYOMffpL/MGe4rpeqFkWIgIlEOiMvbuEwCWKMrddYbAiYnAEi8aWAcc2Y/Sdldhz8U6N5JQnT0nMU1JXkoaIqJjipds3rECqcFnLk7SmSctZQKh+OhISN0meNEubTgCNmCc9AbJlQVLihM8leXISOLUTCyuXIGqhAUf8EFisJA7uxMBiDuJEyxFCoUVvjkVoayBPiiClEuL+EgtFcPIsY4JCi8scESC98JeKWKi/ouTJtlZpiWoLq2kzBZXlSRKDU7h6z9UqUe/ekSCu6GlcjTuFFcr4UyTkN/hWWPaOZ+TTouTJTt+SH4dkk6Ui5CmSN215spMCByVTyZ3Xv28MOYuM+ZMJZ5HH8jgUneKyHwpF22U5IlAUAZInD1LtAqZd/WQrRGix2X0C0y7+V5wdvAhvN+Zg0TtrEneRg7jINovFPCWkR1qeNsbWHF2qziFPAemzYrNcwdmh+F7X4ebAmnbZsSdCEmqSSD95CixQD9iTZsvQUvIUWKAetGWwyVIh8mQHkedZa4q+vkqUyyFPZnB21K5NloqRJ2WlEe7CgGAWs7jUT54CghiQPvPPZxnMshhWIU9VcCg2ozx1VwwnlmolAp2xd7dmhLQ8eXANrCvmqbUgBucAzv7wXrx901asGDgfjd1arE0GeXKRIdNqpBGj0BITucwSES23nSo3B0cLuO2i/lWA9zCEC2wNNqiYp2qWp8hiFiSbpuEAACAASURBVLT3nrIUPeB0IwbS55GnaSGOent+y1NglXJa54wYrDA+TI+v8sU8efQg3hBTlqefKLfd8oYjVsdw2YSWBSsZbnoTznYbZS9/xzirvC8yyJNy22luKL153SUVWGYg3Js6KUkTQcONpWKIpEvUTWTivmS5az/A47FbbDZgxUplxTYlLtagRd31WJQ8BbFsiTvOxsF040bk2n+6shIOheaWMU+FYGKhliJA8uSBt13AtKsffZgu8mQQBeWiknE4goRstq4VkA3p7ixFKlaKqBj5ZwWMKwuO/N2yKvmCnq3fk0DpLBm0Z6cPYN/AnCTmqUnyBFiEznLdRUHwfvIkhq7VCQLDxTHrTLddRNQiTE28E7eiIL/bgVEjLs1z2q4CeXowPBo/K6qrBRUnAdQiUHobsDp047ncPnGAsxFMLoPTp7otWylZw+B5QeybOvWYRZ6E+8qWPZZbczeeGx/HsUvnhxYd2yUl50nEj2nkR7lqT53E/sEZXitQMlzN1Sba2f7mDCyX8VhCNjNgXdYw3YBuUmW77pKg9iwLkw8Hv+VJymNi4QwYL4xD/n7H03b5GLFE6xGYjL279aMKeqDlqV1Is5/OQcB1z1PnSFdJEkUYsTMM3K/UBCv1CgK856lXZrLrx0Hy5JnCdgHTrn66XlM5gMIITO4N44XFzC8YWSJzL1HNb6oTSqQtSJFU1lUHnSBsR8rAWKeOnJY+FaqX925anvpUqTlsIkAEiAARIAKtRIDkiZanVuoX2yYCRIAIEAEi0HMIkDyRPPWcUnNARIAIEAEiQARaiQDJE8lTK/WLbRMBIkAEiAAR6DkESJ5InnpOqTkgIkAEiAARIAKtRIDkieSplfrFtokAESACRIAI9BwCJE8kTz2n1BwQESACRIAIEIFWIkDyRPLUSv1i20SACBABIkAEeg4BkieSp55Tag6ICBABIkAEiEArESB5InlqpX6xbSJABIgAESACPYcAyRPJU88pNQdEBIgAESACRKCVCJA8kTy1Ur/YNhEgAkSACBCBnkOA5KkPyZPKUj/rLWy54jY80HMqzQERASJABIgAEWgtAiRPfUie1j25FRuHgX2PrMGGza1VMLZOBIgAESACRKDXECB56kPyhPu/i4OrQctTr61mjocIEAEiQATaggDJU1+Rp8/jybHbsXQKXXZtWV3shAgQASJABHoSAZKnviJPPanDHBQRIAJEgAgQgbYiQPJE8tRWhWNnRIAIEAEiQAS6HQGSJ5Knbtdhyk8EiAARIAJEoK0IkDyRPLVV4dgZESACRIAIEIFuR4DkieSp23WY8hMBIkAEiAARaCsCJE8kT21VOHZGBIgAESACRKDbESB5InlqSocHHv0x1iyeoto4d+Af8NzG72ntzcSmVxYBL2zHum801U0NlYfw7MGP49Cin+DBZlr7v6/G2A3Ajqv24qFm2gnrrv3WCnxp7q/x7esO49ka2ivVxB9fgV23A08vew2V70p94NN4deEvceXoqVJd24XdOPwRPvXPf4n55yvtwhvfvh4/e76Zbn4fTz8wG9h8GLceb6adYnWz5vZrW76A1UNBO+fGX8SK9e/7G5UY3zjdUfYCfGvPdRhWy+9dbHfo9qTqVzGYWIoIdCUCJE8kT00priRPn8E/WaQpapLkKQ/cSd3cOp48RehJEvVnwKZmydMFeOHRQRzYeAJ/kzcxNTz3zm1F3G95ahVuxV4H0fJ/GEyqftWAIZsgAp2KAMlT35EnuYHMwSfCcf9ixz7c8JL4n8/MwdFPNvADzMEfflw+/De88p38L/Rs8vQR/D8vLgG+uwtf+X7Yodw4bgKODc5OfzHLZ/fMRmDHsr7Ita/v4OmH2P/wDtyBjDrQv8xlneTrXG5Edy45L+zoJB6PrC/KkvIB9rvkk6VvXoAdt4l9vC5LkbRkLfgVRta+lWhilgwGRpa1wcBIf2bicHrbc1h7n+gu3MSPNcRcKCuI2Z7XOmLNE06Nh5Ynsx/dohJs/GcwsWQ2ZqnJ1TCX/+/CIUakJvI092K8egvwxnuX4Cql4+/jBzGRcq+Lr9+1FItfD9eIkqeE9co3Jpe1ziJULqJUhTxl45qoHP9FBIhAOQRInjx4tQuYdvUTDDPYIBARpnAz+c597+BpSZ5WXYAP9h/Gld/7N8Sbxqsb8Opn5mOqjtPv3sBDLz2Jp8Vv2eTJAW648U6EG7giMYNvONw+ciO+GnhCEKRn5Jf1fDQkWXoGkJv68obL1aHXsctpX+dy87r2g5gwGTIoAnJeQMxEX/4Nq9xCK1XaK8MfmK5HfRwK16nY7XDdSLwWHgoJEzQsQ+Lpmgtz3AEpGnxZtmHOBTQiYM6LXifA8c4lH8auJVOmPHRqIk+hjgcfDDoJ8q+L/3TXAlyy8zD+x/ACfBEnxdoQbs4HLsGv/n45rs9YF84R2aRTFQoJa6vIUx60fE4EiEAlBNq7d1cSsXKl37t0/tL/qFq7XcC0qx+Jw61/FG0A/xbCkrgx/qd49tV5E3hIEqkSX9eVyJMeZ2NsGnJjXhJYJtRfaF3KJE9ZdfQYp4Q8nbbdH7oMNcXwVNU7Vc8nQ8r6JsqGFhxkunR0TDVcJXlyzsUpXB3H0iQjURYrWDFOsay/0chuUEcnYM2R0HrIk/wg+EOcwGWPyfgiqfuX4KywribEyF4Xv8IlkijdJ/5712zMx69w5c7fV9Yr9cFRdZLbaXmqKiPrEQEikIlAO/fudk8FyZOFeMoFEbrq5GZiPtNiQ85vgeVJ37A168ksGUQL3QUUWZ4s95vm8lGuJWcdOw6kR8iTJzi7kkvHjr3JIEKxKtkbf9eQJ8vdplld/5PtmovXxf8XWJn+B7AYDeC//j4OHBvA9dICtf1PMi2ymS87kqd27wXsjwjUjgDJkwfSdgHTrn7kMCVBuv5s4JYzXXj+jSXv67pZy5Pu6jHcPrrryraQaHPmrfOM6TYK4ndCF4nltjMIWGXL093Y8tpKDJ3eiUWfe6S5heqVwXKZ6b0ovOA8ceV1c1rkSS/ndaca7sHQ6hfGPJn9BM+guWfdwc5FoHJbntY9uRUbh4F9j6zBhtzjglawuPXh4F4Xos4Dg8B7H+KH4gPjv0rrk4iVeqNALGAl8hS5XUP3HqxTeJUIchF4WYYIEIHSCLRz7y4tXJMVaHlKAegJFpdf4V88Dz+Ogme1jSVvDiqRJy0oPAk2Fj3pMSGnToqg7RlhzJMd+C3KRtYnbx1RRnNznd42DtyYuPH0YGgjeLkyefo8nhy7HUtxAI+O3ItNecBlPc+SwXLd2UHZcRC8EfxtuTZd2El54sBv+T/+YPsEO0FGtwGrY2uY2U86YNx1UqwIUB633f3fxcHVM3Fq+wqM3p/Tjh7fJ4qaLmzPujBiBOUHxgLMPxZ9fBSR21PGM786rvvHz8O88GSdcbghbDII+rdd1tq6aEI8ViUCRCAfAZInD0btAqZd/eSrQrUSlchT2buFUptNhgWm2jBqqXXfj3ZhFDVYnmqRppca8ZCnW/4ee+4WBx0KWZ56CQ+OhQgQgclGoNv37iz8aHlqg3ZlX5LpEKDSHTfpL+z4uH0bxpjbhdrEF2NKHS673M76qYD/kkxFVGf9rqDLrp8w41iJABFoBwIkT7Q8tUPP2AcRIAJEgAgQgZ5BgOSJ5KlnlJkDIQJEgAgQASLQDgRIniaZPLVjktkHESACRIAIEAEiUB8CJE8kT/VpE1siAkSACBABItAHCJA8kTz1gZpziESACBABIkAE6kOA5KkjyNN/Ebnl/hB49a9w6+/qm1y2RASIABEgAkSACNSPAMlTR5AnIYRKgzIVP972MP6m/nlmi0SACBABIkAEiEBNCJA8dQp5EnLcOu/v8NWpr+CycXFtM/+IABEgAkSACBCBjkSA5KmDyJPIH4IXbpyDA7Q+deRioVBEgAgQASJABCQCJE8dRZ5k7NOfYNobX8YNZ6igRIAIEAEiQASIQCciQPLUUeQJ+PqSb2Lxr0ieOnGxUCYiQASIABEgArQ8ZejA5LBKnrrjsiQCRIAIEAEi0OkITA5HaA8qXZEY2ISCMU/tUQ32QgSIABEgAkSgOgIkTx3ktuNpu+qKzJpEgAgQASJABNqFAMlTp5An3vPULp1nP0SACBABIkAEmkKA5KkjyBNjnZrSYlYmAkSACBABItBGBEieOoI8tXHG2RURIAJEgAgQASLQFAIkTyRPTSkQKxMBIkAEiAAR6DcESJ5InvpN5zleIkAEiAARIAJNIUDyRPLUlAKxMhEgAkSACBCBfkOA5Inkqd90nuMlAkSACBABItAUAiRPXU2ePo8nx27HZceewLINzzelCN1TuRsvEh3CsweXANuew9r7ugfpXpZ07n//GT5x5FPY+VAHjvKPh/Dx24F3lp3Cv3egeE6RHvg0Xr0R2L7oJ3iwpTL3z1r6P566Ghfj5/jl+g9biuhkNN6NY7vlqVW489IzeHzZa9gsQKtOns7DBXv+M/DEXrz/jI3+X2Pl7gX4xfKbcdx6JO+B/CJ+gCuP/UvLp6wLbxgvi4mfPN33o11YdGgFRu/X2rzl77FnA/DUyL3Y5Orq/u/i4OqZ8ZNT2636dh2t/Ln97SBwrsTJM7HplUXAC9vx+oLVWIWDGFn7Vlkgmy4vF9at2IsV6993tFX2hV/vmNY9uRUbh89P5Dp3AI/6dKBpJNwN6DLk6lWLZIiaHXj0x1gz8BP845/+bfjT3djy2koMaf22SsZ8HKbjowdn438/rL9Y69WHqvBm6niLyFO6z6y1FDybpQb4IfY/vAN3pDanqqNvUb2bF2DHXR/F8cfGgdtGMPf4GFbd8duwM7nJXo3/8+UX8etmP7qsdzvwFrZccRseqH1YwZ60dIps2NPHA/8Zl177AX6hfxxk4lC7kN4Gv7blC1h4yP2RW5Y8rf3WCnxp7q/x7e8C69Qc78JXvh92LT+Q7pmKs4t+jv9lS/PV7+PPl01g62f/AhPGM9f+1xps+oA8+YErTZ7U4roQ+x5Zgw2SVpf4kxvCesHFW239ct/ALjeWuZgQinlmTaeSpxJgqqL1jqld81NklE69LFKxrjKf/2/4wpcGcND4spPk6XIcbMlm4hbch8P/teU6TGvstawN9epDVSizPxCqtppdr0yfZcq2RtoKrSrSMAVjVx3BjBdt8iTay9pky3Qn3+8Lj2DR5x4pU6uJsr415fo4EN3k4dCEJGWqZpEnu508y5MiT4PHMbL1IyFB1siTaExa3z4xeBJvjr6bElFaxhdN/AOe2/g981mbLtPuevLkesHGvyGxEhlWn9QXhsQ+/AIILU9HJxZj6Sztd/FP2e6Khsd6ZLSZ/ppwbc6m7MlCgrSICXmGZs3Euf0H0BhejKHQEjL0o634WOM9LB0OrF+mNct3kWiysbxyzQqsw7j25XYBvrXnOgyrryD5927gVvjjK7BLuEWeDs2vxktXPrtnNqIq58ZfDK1J4qt2zwVoNGZjWJkowi9bmOWDfpKvXvW1suQ89etpw21nyXbuZGwO1slTekxlXgVB2crkyTfvvt+lft29OMHOYY10kga9PcMqZlqETH3Qv3BNXZF9jCr9tnUIkFanz+CfrJdSVfLkk8EvWzR7bvIkN5YZOJf6Gs3QcUtfcWocV46egkkkpK5dLdwEoSVGWYmmx4oU66Vs6ybg2KDQcbUAtPWirQlTx3U9DstHLXvXUo4OW/JFa9C/loL2fBuf/H11aFZM1jNCjM5gYsnswFqlr0FdBu33r21ZhYsbH2J4SYCf3h5grun4WRYOMWnYCzy7Gp88vB3rvmHiIwn1lENNWp8qkydzDSYWWd/vkeyeNSWtTgvPpAlDFg4Z+pBY+00d1+c81mMhmtSh1TiDATHnSsXD9QKrj2AUkT5rFk1NFxR5uuOT7rUkasfkaS3EB/4leP2qvTCjBHzrXVSWH3nrgJdS1ifg60u+icW/+jJuOJOzjpp43PXkSW56o++sweiJyN22D9eM3QI8mViHfBuj1/IkNjeEm1pCmESTVrsx7mpDHMCu6KtcLsLlE4bbpyx5Gh0QbqPdA9ioLF17MO3u4KtfEiv1TLqU7H4l474S+M5LT+LpgkohF9DyhkZ+Dn4ch/LIk9G2viCDBTQQkin1Ih98Q21U8i/vqzfviyavfsEhO4ul3Hand+Z/gdr4Ry0X0IegqCQQpq7KX1N6abmSlayDe5R8WaTPR/bNOgGJmbY7cj//ET71z38m3mTX42dGiKDttvtdIQusTwbzd1uGAB3n+vRtLN7Jlzo5H43IPSU3gIW/zCdPRnuyDW1dCJI0EZJ8c/3k6bjWjlNei8D5xqSIxlTsDmOnXOvCXks6qYqb9ZLI6zD4cuCWCep9GMdpxe2eSH9cRWtdbcrCWqDiXixZbbzcQyyIg1Y5y0JR+L1gf1QXct27dTdY2/q6kutnGc4aXgs3eSpNBDP0IfMDQQfGWhfJnFvrR9TJfE9bH91py1PeGrBnK8stK2OfPo3ffNt+VwHtyIHbE+RJusOewkqsnwfsGtmJj42txNsjia+6NHnSYp6SujMdyh9OdOqLJb0oypInFYslLWfKjIzYZaKsUnGcltVPafJkK7K1SfgsTyLyJYmbkBhEViSrPW1BViVP5teR/RVb+LWYW7CK5clbJ1Mf8kmITRpSxE6OJiJ30Qs/RfZ8liLT4hMBk3wtZ5Gnsm67LBnyP3BqIU+WDqqv5yLkybZWFbHICjDz4/pCEhZrpG8t+VXW7qMIeYpaS298tuU5KBlZ2nzjySJjZh/6OyFr4yyPg4FQaVLtwLeK5ckbI5vW/bQ+10OesvQhizyl5rCIRbYKebp+puGp0K1cuS9mUcBPJn3vKlFpxj04eskJXDa+rUgXlcp0PXlCqPBbcDlwCMLddQRYfhG2aMG+9ZAnaXnSvyQ0vPuMPClCI1x/gUXJtjxpm0Oz5MkKsG215alsTFoV8qQsh4isWsUsT4WIXYpEFScu5puD5OmOZwJCMe/N8hbZsuTJv5baSZ40d6XVbRZ58h3+qEKequCgi1rLybR+Ik8qlGIGjlWwyJazPA3hvh8uca+lQpSlc0/ddRl5Cr/a9a9sxfwH0Dh2BKNjF4l/zxFTcsI4LZdFnlIxTA4XSbSpBhaA99InMCw3jSo370Qht13UfxCDEsRKxdalspYnlE2eHGwSkYk+sPLoMRyhayD8CkfojjNM74rgnBee2sm3POluPHvtpBalbFucOAmOvZouwbx1F8wVCrmWZFt5BEWfn/j0jSIswipoB1Fn6MOQHjfnOYDgdNvpbmHf4A3d9Z8y1d1+rqYqxTyFsVyRuztoN/uka7L2gnUN6+RquZgnDyiGSyO0bmhf2JE+Bl/hwluvNhNzXRiuq6xYQCGC7ao2pUpbXvxrKUPD9XVhrc2oVlZsk31SKktmLxm0XEW6tH7yZJPSpFYlHLRO3dYJx36R9eLII09OHXfrbsptp+rOwdECbjuUtaJl6IM+t4aOK/IUuX5D62OjQCygwC/T9Zpy2wXkyecGznuPi8sOPDGO8vXCmKd8/OISrsUQ/DaoYpQC69DSieDL3uXuMI5XG8G7ZsB4dFWBvanabUbtmb8nAeOZMmj9B4Hh4oRTU+Spgq9XCwI8N35SBIZODWKewkUSBJG+i/3j52FedM2A7tI4dRL7B2eEgbbZ5AmGuy8JGLddc4kb0Ay0NWTI05rQElP0OH0l8hSSruSKA9+8awcIdJ07fQD7BgTZD+Pz9CDuYHhJXJFP7+w65nh9weS268464FDltJ1zY5Fj8MngD3TPwkG26D5t51eIRL+Ezo2LQObBIObJ0EdDj8Uj37rIIU9uHbddUqL9KKjWu5ayFFxbF6Kd7W/OwPJwbfrXUtCem1R5Do2I8lmWNNvtE7n6/ORJSmBi4QwYt+cib617T9uFeo6C145UIk8SJPMQSLwGfb9ba0INz4iv8py28+KQ9Z7U8LZw9a2L3Dgpw6WdcWBCfKR89vZzRsC4vcfkTS1P2+UhxOc1ItDMPRdlg/lqFLvuppxfenV30rvtpe956qSxlt1cNNntGKhOGhZlqYBA9j1PiojHbvIKzU9WFdc9TwVlaWV4Q0ER4mJ5VxVktsd7nsrCzfLNI1D1hvHeIE+B5aLYabDmse7dFnryhvEuIU9pC1KkZ9ZVB72rfoVG5o11iqw+RU7NFuqp/YWqxnH1Bnnq3FinSBO6LOap/QrMHokAESACRIAIEIHyCDRleSrfXVtrkDy1FW52RgSIABEgAkSgPxAgefLMcy8D0x+qzVESASJABIgAEWgNAr3MEWh5ao3OsFUiQASIABEgAn2NAMkTLU99vQA4eCJABIgAESACZREgeepq8uS/qK+sInRP+aqn7bpnhJQ0jUBHn47LuuyuCydT3XF06RktUXUXDqKQyBmXFBaq38mFum1sfnndF9tK7MtenFzvfJE89Sh58iYG1nLbpYZuJY/MvYRRK29mvK9XSZPWXPc8yYzzi4AXtuP1BauxCgcxsvatVgngabdmGewknrAuemzD6PSLK3P1oMXypO9lSuewa5X+5ePguounZn1oKb7pKzyyyJN+zUB8CWRL5Wu28Zy5aOLOIVMy6mT+TFWdC5lW6S/xB3s+hZ0PWb3InKefmYofb3sYf5MvQK0lSJ66mjz5daE0efKk0yiibXk3WBdpo0gZdzZpuSDnYuKxXTizZjLJU40y5N0GXASsmsq404jU1HiRZpw3grvz5hVprmoZHw7uW4I7QSeLjrTE/WfWDeRFe5jccvlzUfZWd/d4qJP589zEXDjfA0GP7n0hX5pmS5A8dTB5cr2w499kbrjVM5X0xld3ymohS5jpWY5OLMbSWdrv4p+y3VQuvAgbo820FcRFnkzZk0SuKredkGdo1kwht0zbshhD4fX9Qz/aio813sPSYce4vCbaZEG+cs0KrBNJfVfd8dtQck+6BPHUSL8QpZNQ6RU+DpyajllDYbqLJdMRfWGbl/vpF/plyVBhiVYlT955MtOFJJYk62vZSKMQyO0l4XcvxhRVQtcHqz3rEj8jDYvely63JYPbZF99o/LJ4JUtnD43efJddtcJOpmld76UJdp6ideE1o7vEk5XSgtZTZX/QKQ4mo1hpSz6mjFliNKfQLZ1E3DMWce3boPULEG6JbufAmtT3vZ8O/DOslP49wrLNahCnazlPZkxF37X/eSEcpA8eRZLJwAjX+ij76zB6AmZIBgiIfA+XDN2S5wvTIqelRh40aEVGL1fG6CVoyshTDJvntluXMtKBAu50S2fKJQYOOnfJE+jAyIf0+4BbFx9oUhuuwfT7r48znunno3ci012v9I8eyXwnZeexNMFX3De22iNpLx6wlMI8rQEAyJJ8O7B67B68CQef3kq7lwY5QsrsJEUlC2zmE2AHaQmVd/GKy4QEJppuyNdkHOxDGeNJJ5B4XwSLEslc6mSCOv6kEX6HHqjOnUkq944uEflbwSkuf7PgE3X42fP6yNOu0gKuRZ9Mli/u5ILO8lThU23E3TSTH7qsDzZFiaDHEXzEBEhR87HKOG1kVjbzCWXzhE3Hw2ZuFgldZ2NiW3PYe19VqJWa91611Dpm9abSIljrbOlwReF+qNOChBqnAt/WqVm0nZVf2F3AkeoLn12za6/qiDazJ7CSqyfB+wa2YmPja3E2yO3QW1cng1P/l7EbZdsljO9G6raHBceCTczx+bpkSHT8iRJnbScqXYh+k7Ik4twqbFWIE9xAtQw03ykLqkNLN4s3sdqYXmSyYMhvmRVhnbIr+eAPNnJQmG1W5siV7A8+V2nFtmxdMNOVGvHDqX0yGXZjMhdlDaiqAUr1J0k+XCIYGyxyiJPHrKfMQk+11sKO4vQeddTBfI0+Tppk6UC5CnC1LURakmGY+gjq5V343QkE0aYTFuSJ2EFenrZa9gsGtTXqjvxb9Brc2szK11G0VVdzfJEnbTxzZiLr34ff375Yfzjn/5talK+vuSbWPyrL+OGM0Xnq/lyJE8eDDsCmHAT3YLLgUMQ7q4jwPKLsEVaZmolT9LypFsnNFC6mTzpL/0bp4tPwfGYBN0aZmpXRYqQpx9eIL6IZ+CY/Dp+RtQp/UVVYrG2izwp16/giVcEZLyQ5amIbA4SVXiTMGDqQfI06TrZAvLksszKcWaSp+Aj5UF7WVhWr0LkSVnGmlmbdZxM62LyNOk6qStB95y66wiOUGJbKVO0yyxPYVyKHieivoAH0Dh2BKNjF4l/zxHjPyHcd8XIUyqGyeEiWS++75ZteF5tnBuH34s30hhoyx2kys07UchtF/UfWDeC2BgV81TF8tTssVT9pWyZ/1W8hIiVunJUuu08lidFnqZit3rhh/EajYCM5f5Z7tLc8jkEJZgrCJfnGmyQn+fyT1mEEiKU9GG57ZQsc3BU1p2ju2AD/Rvc/4TSh+gvTXr8bj9zXKbFy6U3qrzX3Ri0Vi3mybGWQnJo626MneaKdmWrLxfzlDvDQYFJ0clAdwdfTtxiq4eshLy+wHAnGZJkLHS5yY8K/S/jA8N0HWqVMsiT9xSgIk8V16aaB3fMk/7eiiz9/pnNI0/UyUKrgjFPhWBqdaHuJ08qviTa0ALr0NKJncqFZgS4hkgaPvbo6189MwPGI/JlWxrsNqP2zN+TAOFMGbT+g8DwgTiuqRp5Kn+qws7eHgelCkSMZ1bAuM9tl9QJg8kHHbFQTq12vzi9C6AKeYrIwfD5YbNaILehC3oshh479Bb27b8Ql4Vk2nbnAb9LyJrluotcfbY+uFyAo7NC8TTXnk/vVMlKp+38eBvj0mQo9LsSSMNB/J/7tJ3/1dYROqm52k5vGwduDK1Artgm3TXtI0OW6y6+wiDTOmu57qI1mEGeJKrudav/XnZtAr7Tds6PFO/UViNPsrlCuufT1V7RyRBX78lHnrZrNV8y2u8y8tRWMqtRygAAFq9JREFUbLq0s8kJDGwerH68zLR51KIW/IGi9fVRvSXXPU/VW2PNNiOQdc+T15rbZhlLd9elOumdC97zVFoFmqxA8tQkgJ1ZfXKOpVbGIrTStOoSx8pydVlF3jBefMJSwdNx1TAo23avFW+6x0r64msii2z7L6etD+A64rjqkya/pe6JdYrGwpgnz6z2MjD5iswSRIAIEAEiQASIgA+BXuYItDxR74kAESACRIAIEIHaESB5ouWpdqVig0SACBABIkAEehkBkieSp17Wb46NCBABIkAEiEDtCJA8kTzVrlRskAgQASJABIhALyNA8tTV5Kkfj8BP8mk7dacNsN11O3Ivvyk6dmx/jZW7F+AXy2/G8Q6UUd4DdTF+jl+u/3ASpAsuxJz35otYsf791vbfN+uijlQurZ2KZlqX9yxNOfQifi3yCrb/L7j7C2Few6b6l9ceLDyDN0fftZrxZS2QxcrtLSRPPUqeiuS2Sw3duvwwN7GlVr49R/Fd9zzJrOmLgBe24/UFq7EKBzGy9q2m1l1SWW4+VwNPhClZ5IOym8TNC7Djro/i+GPiMsLbRjD3+BhW3fHbivKlE+K2B3ddXPNizSi1S8UBNVnNcf9LKvdeq46bF8DBdW9NrfpgwZe6lLJV5KncujCuTmhVPsgmNcmu/tVnw3fJ4UswdgOw46q9eCgqJG/BFjean130c/yvJvtNXTRcJAl4lT4LvKtdF75m4lBFjriOQ4dQljxlv/urXLiJGffg6PwP8FCBBPQkT11NnvzaW5o8qcV1oZnyo+Di8CelLdhAwWK3zvs7fHXqK7hsfJtWQy6guZh4bBfOrGkDeSooa1xMbZZTMHbVEcx4sQ7yVD4hblmRi5VPJxwuVq++Us7LM4vk3qtPBNGSDwd5b81s/O+H9+J9/V6lWvUhjzzVOlCtMdfG5+vLkXi4VWLV2K4kDSMN8aFz5vI0eRL9lL1Z3idau96dUf/e/jyEMA+H6pCX0SFfL3nvfs8aFM1lXbwrkwxf/8H/iyuP/Uvm8EieOpg8uQhQ/JtK6jpTSW9YH1xZ7630LEcnFmPpLFkz+SqX7aZy4UXYGG2mv+TzE8omG4zKbSf6HZo1U8gt07YsxlD4tTX0o634WOM9LB12jMub2y5ZQK9cswLrRI46ZdlRaR6mYgLTMWvKu9g/fh6Gl5yHOEWLnlIiTs8SDNhMoRFdLBjms5siSzhygd0zG+qRnI9xzU0Sb5Z7ReK81fjk4e1Y942qr5y8FBD+do0vXF9qFP2r10rpkrZwuUmDnmrCrBOmTIkwMnLomc8Si6dpaTMtoR7ze2Xy5JPB93uEtYc8+dwGHn2QOrdQ6NWsoelCf05iYslszNL0UtdJQ7/slCqRZUfTb6O8FNtKp6KnLcrSzNLrQjbmy5MX5YcMF00iQ0C2GuF6lU0kz/Q1qP8u6uy5AI3GbAwPyRrWZaDGeLW1m4FDTBp+OhM7RErOTdcdxrMGOPVcQlmZPPneyRXe1XJYPveyG4dgjnBKvFuHwnQ4S6Tehu89QyfNd6Vbh0SKy6dW4U7xfjbnW/6fOecw3tWed782T363eYa7//wNePVK4Ds51ieSJ8/bohOAkQtr9J01GD0hEwRDJATeh2vGTMuDb/F5LU93LwbCjSshTDJvnseiYSdulYtTS6Iq4StLnkYHDuDR3QPYqCxdezDt7svjvHfqmUx8bPdbUKHj6QwX8MS2F9G49joMiyS+jzfm41bsxYqxIUGsgKeXvSYyuYULd/ANleRXLeLw38HCtdx2yrTsyQivOq/ji8q3haXddrmuVdmUY85UD9bvimAN7lG5E80/F2lLkwZTD8yExP5NwkpcrHVs6rCVkFjmuloHvPTZvxAEWfuzPx4KuUF8Mti/u5Iiu8lT2dgRtakMnsTjL0/FnTeeh/0Pv4HBewI9Oy10UumtilvSE/taSXkdueSkPid1XXqVp89BnfLrwspdp1pJSI0ii4eC5MRQaypKLhzUG9A34nCtzipYx5DVSBrsW1eRDFnr2q5bTwqUlNtOTwzvE9eXTLviuxooG8eVzNHuwesSvV0oc30mydUflPJrSdiR+24NPlwTvUgDkK/PVp0qKV9U7NNVOPvSX+HW3/l1phM4QpZGN/Os6y/JjDacp7AS6+cBu0Z24mNjK/H2yG2IsnyXJk+KhAlyIpBN6s4UCYiX4ewja7BBsgl7M1p4RNtQ8zbNoHJ640sIUqXEwFXIk3rpnsLVIQHaOxJsJE/j6vgrJx6q+mL/jUWWipIne6NoVRqMapYnJ5E25v/5cIeMSLrUD9PiYifETbur0sRONhqTu4jU2JuDfOFrOpmont2/fKIl5c0iT4a+FniFZMoQ6G203tJY1kee1KYBcSDB2IR+jotF0PdwZNYMh6OsMXHZU8GvRclTKgGwZUlNQWavg6LrQjTktDxlESsfmStRR8Mhc7MtjYMJTFmC7NLEKpYnb52U1bXYu7oaeQqIJiKyE+nioY+LAzXTzaEqa1HyHr5DubHdH5ku8mQn005ZUrOWuHRHin3gHdH/v1vl/CmfZGztHwKvkjwVeHumi3QEqwwXwxZcDhyCcHcdAZZfhC0h+ZFS10OepOXpdkzbvQKj91tYVFyQnU6e3F/j1TYJtbiFu1BarlpveSof81SFPA0J9+oodoakuYjlqSCxs0lUCeJiaGZfkSfb+hkiYZOlQuTJDiIvYnmqti6UlF7y5LPyZJGngnUKkacqOOgaWNZa496GepI8KfIfEvp42EV0yGF5sg7oVLI8tejUXUdwhErsJr9Sl1mewi9t/ctcbSwDaBw7gtGxi8S/54hRn4gtR3nkKRXDZG1U+sINzMfvIXV6yjIFq3LzTgSutXAOfG67qP8gDiaIlVIxT4cESZMxW8pCID5eXrOsUorA2V9Nxb4GYrWIX9ppy5Ny24nTMrsd1w1IIrS8EfjuAz+88HI+rJ22c7jt9DpBPIl0u+h1/MqqYxNZN/yl8wiKQ4dCgm3PmerDctspWULCZMTAOQ8TuL9q3W4/a0SGHgYyY3uauGfG4aFizFMYyxW5rgPJfDJYbjtVdw6OGhbakjFPnsmNv7hTlqfAbZe4krUGDJdUaJmxTrOlNxvd7RfFmnyYe/VGlXXhJ0/BJhmtMxMSP5krXEcnkd7TsdVwSGR1xzwF71EUPniTR56c7we1HsV7U7OIKrkqvqtl1XJXaiRzlLI8Kbdd5II1ZzZfhzzk6doPhOVKhlhYLt18DpAxLsY8ZcHX/eQpfKkPqhilwDq0dCKwBqR85QIJI/7FCPgNg7wzyFNExDYOnx9jGrVn9pUEjGfKoPUfBIYPxHFN1cgT4D5t51GBLPIUE6MgQFH+xUGpmin/3Pg4jl06P7yqwOE2iIIXdfP/qZPYPzjDvN4gQ0vLvWyrkSfZvR7IDS0OyPd78CJeHATBnz6AfQOCuD8p3boOd1rcnu26Mw8kjM5KgPDrqq7HVl9W/FKl03ZO8hRtPOF49bVkBc4ncmfhIMfpP+njUocs8vSgHTSrHVhIXBrC9SYOoa4Ov/qN6wFsHTeCyWVw+lTlglExKr6/KutCtuUNGLfWUxwInGUJK1jHssCZWLgDxoMg/QI4hPh4T9uFltVCsYiirUrkKayXvKt97+SC72o1T2WuX8giT8LiZAXiuwLJzXerfUhHCuQ+qCMP/syL4/+yFDZ7DfK0XTZ2XUae8hSBz6FO3P0Jpr3xZdxwpkfw8H1F9sjwWjsMxz1Pre2wXOveYNVyzbB0hyGQRTSc1skOk98jTl3XL3TKaHnPU/WZIHmqjl0H1yx3C2znDiSy0rTqEsfOHXm9kvGG8VrwTAVPJ62WCtCtRZhObsQf6xRYcbVDDZ08DI9sdQTBd8SwecN4U9NA8tQUfKxMBIgAESACRIAIuBBgwLhHL3oZGC4FIkAEiAARIAJEoDoCvcwRaHmqrhesSQSIABEgAkSACPShgYXkiWpPBIgAESACRIAI1I4ALU99yCpr1yI2SASIABEgAkSgjxAgeSJ5SiEg71P6In6Qm1W6c9aJfVtwCyXzXrrXwj7ZdFsQUPcBXXomvJCvLV2yEw8C7ZuL4O4oyHQ3Ks9er/6VvGS4V2GocVwkT91EnipnjC+hMTPuwdH5H+AhLaP02m+twJfm/hrf/q641O2uj+L4Y7vwle+XaLOWolmX57WKPDnyL2WQJ+MyPuum51ogaEEjMmv6KhzEyOFLMHYDsOOqvXiocj8yy/ki4IXteH1B2O7atyq31tqKaX3K2rC7b27rnou629Nnt9xcVNcLX04+D3kyrm/Iy/9XXao6a2a+q2V+0M9MxY+3PYy/qbPTPm2L5InkSUPAnU1aLcjB4xjZ+hHs6Ejy1KrV605e6e6tSI6wVslZvV1JnkYaY1h15vKayNNcTAhyfWZN95EnP4rdOLeS7NQ5F3W3l02eqmt0Vs0y69mRKqQ1QtXaat67ulSWhlol673GSJ46nTxZ6SEQ5b5TVqgJkTZjMZaqHBr6ZYtm6og4VYBs6ybgqLOOaEJanS45gcvGRZ4H7S9ekGshXsiX4HXNOmFmvI6u1LdfPPrmE1iJ4izxcVqGIM/WapzBwJLZQVqQ0HpjZ9VWokWWHSPVRJCTLv6z0gTEKVhy1rF7TLrcjq9QbxoKc7yJDAEmDZFuYHhJkCZGl0+XIbmkUNTZcwEajdkYHpI1ErxVA8Z43Wko7H5i8vTTmdghUg9uuu4wnq38nks22FeuWYF1Ilnyqjt+G7ZmptbQL140rDpWmg6cmo5ZQ2Kc4x8KnKYjqmfOUVGrgKV7cZoTTTZNH2MYfHPrs0yo9CAfiDQ9Yp6UIuvyefRBtiXW5jFnHf/c+nHImosqE+xuT+XOG/wQGJqOKSo1kRxzMl63Hsv+K8yFdZFn0cs7fe8oXe/S7wY/0XKPKSz/ZqCn8k+Xz4fD17aswsUNdx0BqnIpzgqnK5Yx472W9a4OmumVS4ar6HC9dUiePHh2BjCSBC3D2SgRqe62s5K1JjmSghx403ZHiVa1NhDkK2uESVhVXrXBPSpXnvz7+pJvYvGviqc+US+fwTfCDNrmyybO1aXiCPxf7nri0uBlFiUplXX0BJPZX//52baLWQ+yxhSoit2OI+edRmrSOERjspJcahs05IYU52/SE5iadQxZjSSxWS+JYjjU+5oJiHEyJq11uRHEiT/DRLVKp2SC0SUYGH8Ruwevw+rBk3j85am405Wx3cpl5pPdTCzrwCFFkrLm1qqvj8NKDq2P3asPEOTpntmYCGNvDFmLzm1BHOqc23jNPvwBliv5X0Tj2qtVbse9Iz49thMDF5kLW+piVqT89Zy2MLk+1iIiZOqxvjZDMtgYD9+HyZhkYmf3eg5zukndlolvjXk2Exf756zseu7BFFd1KnSJtjqDI5QQuETR7r+qwI5xssnTwiMx8UlwSWd5l2kDVDLeE4I8iQTDT43ci02ygpUouBx5sl9excmT/XLyv5iCl/Adz2QTMDUU1+acSjmRZ6HIHpObPIXIO60TJTbfeALtL/LgQfDV6diwtUSwTnIiK5fGocQqK1o0+lq2YsFS8xbj+D5WC8ucTFibztx+Ss33naHFTomQG2PmIr1B+3FC3CwL0+3A0yqze/hnff2rXyOrlZfEZOiDJE9aH/ZHhW9uy+NQdMKKlYvlHBsK5T+Fq/fIdbsXuF2zMIfNOfXY9XFVaD1ZlteUyEXWs8895yJnWWvTR+ay6mRY6L2W7ObXc7n3fDE96MdSJE+eWe8IYFpNnmT7yyfwaEimyi2qiuTJCrj2bxJ2+2UtT3YQeZEvtCIvW0873pe9tUHH+uaTJ+uLugp5qoJDC1+FFomqRJ5+eIGw0szAsYdDYl3I4tIC8uSygknoMsmTRx8s/SlEnhQpLotDvXObTZ70jx+932pzoT66hCv4ytFTorEilqci67ksefKNKYs8+epUIU/NrmeeuqtrBXQER6hrMFY7XWZ5CuOUopgmORgV7zSAXVfchgdgPfeevAsSzsZuOz3Lt3TbaZYnaZFa0XgCyzY8H0DniXnyzY/uWgi+gIH94YamPwssTaHVx3DTpN1QpnnbtjzpbjxTqrTlyTR7my5Bv8ZljSmoVYY82e6JrA0keWa6GjLq6Ju09xRgNRyCXh06Wcdi1YmC5bZLNkjptvNYnhR5mordympku0t8Apo4GDoZVSljeVJ64NHHDDJnug41WTPIUxDLBmzXrWSyqsPNMxy7jXImKoylxH5t/VeYWz95Ctx2iVtfb7zaXBjYWa7RKu+oqI7pSo1+dZMh/9r0kzl/nazY0ODdmL5CoZn1LMfGmKcKau6sQvLkQbL9wLg3qiBTtxRSBIRvB0YjV13WtQVWkLkRMC5inlQMq/zTiZr6wX3azqtsujtIBYvOSNxs2rNz4ycxsWRq6CLRzdjvikDg8zAvjO9JxxOYX2yGiyJ006TcFnJY0Z0tRjC5LkPG8jHkHsexS+eHY3K4XPTgYq+Z3apnBUQbbqNYLNvUH7kb/ZYnWdXEwh0wbs5F3mskIOJLcSC2TubVyNrEVqsg91D1tHt1DDeuAx+X2y6pEwaTD/4ytEhkSKjpw+lt40LdQytQyq0p2tDdgL65tVx3cYBwpiXMow9Z5CljbivhoCCqhxhnkac7nvHpsei+ylxkvW980+5dz2G8kaaT5gGMom64aJ1lWcL8OGTGhlp62dR7LcSHp+2qvsHS9drPEeqTPa+lLrM85Q2nhudWjJOzRcc9T8V6LmJGL9YSS3UOAoq8Y6cjtq5zZKQkVRAIiPFlx5qzPFXpmXUmCQHe81Qr8CRPHjh7Epgi5EngUe2G8S4hTy4rQ6gDRY8+17oCO7WxyHqZsk52qsC25U2XMy+wuHPH1BLJ1EndmTjXpMuuJbKVbtQVhB82knuIoHRnXVyBsU51T15PcoQQJFqe6tYWtkcEiAARIAJEgAiA5KmfLE9UeCJABIgAESACRKBpBEiemoaQDRABIkAEiAARIAL9hADJUz/NNsdKBIgAESACRIAINI0AyVPTELIBIkAEiAARIAJEoJ8QIHnKmu2su5T6SUs4ViJABIgAESACRCBGgOQpRxlSt3BTeYgAESACRIAIEIG+RoDkKXf65U28y3D2kTXYEGcFza3EAkSACBABIkAEiECPIkDyVGBi1z25FetFPvU4B1yBOixCBIgAESACRIAI9CYCJE9F5lXGPi2faDq/V5GuWIYIEAEiQASIABHobARInorMT8G0JkWaYhkiQASIABEgAkSguxEgeSoyfzx1VwQlliECRIAIEAEi0BcIkDwVmGbGPBUAiUWIABEgAkSACPQJAiRPuRPN03a5ELEAESACRIAIEIE+QoDkKWeyec9TH60GDpUIEAEiQASIQAEESJ6yQGKsUwEVYhEiQASIABEgAv2FAMlTf803R0sEiAARIAJEgAg0iQDJU5MAsjoRIAJEgAgQASLQXwiQPPXXfHO0RIAIEAEiQASIQJMIkDw1CSCrEwEiQASIABEgAv2FAMlTf803R0sEiAARIAJEgAg0iQDJU5MAsjoRIAJEgAgQASLQXwiQPPXXfHO0RIAIEAEiQASIQJMIkDw1CSCrEwEiQASIABEgAv2FAMlTf803R0sEiAARIAJEgAg0iQDJU5MAsjoRIAJEgAgQASLQXwiQPPXXfHO0RIAIEAEiQASIQJMIkDw1CSCrEwEiQASIABEgAv2FAMlTf803R0sEiAARIAJEgAg0iUAvk6f/H4iHlHMyEAOEAAAAAElFTkSuQmCC;" vertex="1" parent="1">
          <mxGeometry x="392" y="1053" width="591" height="220" as="geometry" />
        </mxCell>
        <mxCell id="m8RNqk2MvfK3ll8YLfeU-65" value="" style="shape=image;verticalLabelPosition=bottom;labelBackgroundColor=default;verticalAlign=top;aspect=fixed;imageAspect=0;image=data:image/png,iVBORw0KGgoAAAANSUhEUgAAAfcAAAB7CAYAAABpcMkwAAAgAElEQVR4Xu1dfaxXxZl++2ejYu290mIJQkVRKAS6F6Gk9BZFE4PlQ1uNdWuXbsSmdrVFa9LtbtT0K7Hibm1rqqbSdbVGq0XYEpICIqWh6qXCgqB8NGjjQioXdfnI7n+7M3PmnDMzZ2bOmfM753fP+d3n/qPce2bmnWdmzjPzznve5wMXT730/wg/QAAIAAEgAASAQM8g8AGQe8+MJToCBIAAEAACQEAgAHLHRAACQAAIAAEg0GMIgNx7bEDRHSAABIAAEAACIHfMASAABIAAEAACPYYAyL3HBhTdAQJAAAgAASAAcsccAAJAAAgAASDQYwiA3HtsQNEdIAAEgAAQAAIgd8wBIAAEgAAQAAI9hkBF5P4FemTrLXTJ/odp/opf9xhE1Xbn7t9sopm7F9Kye6qtF7UBASAABIAAEIgRKEfu9zxGu2bspZnXrJL1+MmdE9qyidGjJ3eM3g3ATY88Tyv7tym4YSICASAABIAAEKgegYrI3WPYjT+ibSuIHh38Fj1evf3tqZHjcEcfbfrkV+je9lgNS4EAEAACQKCFCBQnd0FOs+isuJNvbohOoPwUv3iC+1SeOeXLCpRydHInPRCTv3j+OL3SN4suFY39hdbEhKjZkP6en4iX0UHqH5D2xbbJpsSJeeBM6TqI24q8DVEb3KWg2FDDQHIbbqYncW1RA7aoEggAASAABHQECpL7HbTm1fl0bNVSWvEkq8BC2BnyMjcDol1JyMZpXnNXC9L/ML0i20rrncBsmEa7YqLnzy04LjYFJMj7XbkJsNgqn/N5DgqR75kr6OXLp9IYFcNT++i+zY/Qau/M4huJG5mdEj/MQiAABIAAEAACNSJQjNxNMi9C7rHRjmeTk3T8nOoJ0O7z5QPqST8uI0/bnNzTU7FOpL4ANjUWQBzea4sHALnXOIdRNRAAAkAACBgIjBi5O13UPje+jfRZh/RTd0FyF5sFSlz+OLljbQABIAAEgECvIFCM3LVgMO72voomWe61rYRtI2tfcJmL3Mlwtysj4CN34fKfcjC901c9Com7PupTf20nd3MD0ivTB/0AAkAACACBJiJQjNyZ5akLm92bryNaJk/RWrCa7OHhdcp33A6yNsslZZzkzio3XPOxG91H7twkzf2eBM6pAXV/oVd2fJguqTPgDdHyTZz/sAkIAAEg0JMIFCb3nux9lzuF79y7DDiaAwJAAAiMUgRA7l0eeGSo6zLgaA4IAAEgMAoRALmPwkFHl4EAEAACQKC3EQC59/b4ondAAAgAASAwChEoRO5jx/bTO+8Mj0J40GUgAASAABAAAu1DAOTevjGDxUAACAABIAAEvAiA3DFBgAAQAAJAAAj0GAIg924OqMy3P6zmAfC2HyXXocLPp5Utn/JD+io9S3P2/6mbPURbQAAI9CACNz66iG67+Cg9OP9Vlg2k+z94n4VjPorJXWba45gZinCFUtGGY03ULXIfdye9PvVEAUGbMp1oR5m+B35HS2dFkn8nd/6Enln5K8XwCfT4SzOJfruObvreSPdnEj2963zaPfNF+n4npvzTPNp6NdH6udvpvk7qkWWv/9lC+tpFf6WHrthDT1dQX1AVf/tJ2nQL0epOiOTez9LLM96iOcsOBzVtPmzH4Yv0qf/4B5oqhCZP0r6HrqQ//rqTZj5Iq++dTPTkHlp+oJN6ipUtM7Zh5J4zp73j61qbf0OrL/8SnbvvG3T10WL9HO1PjWJyl0Nv0Zuvjdy7MtuW0G+XzKVjm79Ny091pcFGNsLJ/XL6pUHqsakg97xBK0MAeXUW/nvjyT3uCSf5vyN6vFNyP4d++0A/7Vx5kP65MEjlH6x/bOsgd9Zfoco5hn639v6u4FQe4WaUbCS5q+liNaU2Lf3sKU0W1q3nruu2a6lx+Rg4yf0gDTN9+En8GTWPvmaDojXvGU9TfU61wa41H+Wij5XzdJuZx2HrR+nYcaZ3P5E3muIgTOCn9vEH6ZKhtZpFd//mefrY8Lt06cAE8XsVV6sNlnS5WgKeEjj4pzx/wV1IF8iH/rz+Fbp6M9HyL05n1wtv074pF9JccRB/j54t8BL0k/vZ9C8bZxM9tom++ZRskBPKtUT7+yfTgGjnHVoXn6b53+6cTJEfgGE3tJEW3vxe9A9+QlwyVunaadpx/3q6lTxl6Bz62bYrZDt6W+KENPsM2dCh1A0qTqInaIfNPv70DdNp/VcYz1R10uaegOlv0+D1f0n75rNBw0jBLoOR+jcdhzfXPkPX380KSHLfP8zGQixAvb7vrLmOFovfG2NhjBMdHpInd70ddfw43svpKB2fPZkmigoVzPm/bTgkiFRE7hedRy8zReh9746nuefzytU5bl8X3739Upr1WrRGop+A07+lT24cOFHPtmOTmcfMDIE5CW/U8NAZNCDmslwTT5jz3jKGZFmbyur67ux/pVlv4/SuQOL838aRezZP/C107haeq94tmxqRU6znHpF5VCbKKz9zd5zr3iI+4yD3lQMkNw9KGfoRbbujjzZZNOV9WvEq+hmCVLTmbelpsxntdJEbs4xr8osNRt/OSEBHJW5O0g4bsthNo1287ybxG3UUmXj6M9ELjCShk3zZ/fzuI0SM3O8a+CBFZK+8wI7wXfxUGqNWdGpfchXhJ3eLhZIYjkuCESTbv8/i1uUvqHlEDzMCf4K/+KbSMCfzJ4g46SwYVog/aUYtYz6nnHI4eV52IiF0zQaxiTgj2jiwtqKX8fZ0kxEOengJpw0f0q8W1H4IXMfQFsu1A8drxm5J6GwbnWApN0a2sdD7HZFF/wu8Dn0sxKZLuuX1cVHLRDjeNvt0spHTbcqDqCJyv/xCen3ROdk5fsC9Lj5++3Qav2EP/X6Ab34P0Rx267T63vH09o8W0JWedeHqUS4OFm+KNj+1cZYbArm5yqylDjwz/O79rjEvZQ4veSM1Gv/eMHLXT9nxgMQn1/gEbJ6+TTd6+u8JkYKdNrLGSTfXLa9sKi5kRKjJznKilYRXcPaohJlx/1tssZO70qYhtOMjd32TE9VxmG2MNDU/1Qa1btf/i36H46DCFZ3O+Qvqf+SvUzclsRPK54l5In7MT8rF3ZelyF2959VeQMrpRVgYn0R85O4ro96xp+T+pknYqg0V3SEXnKb2x1w2ZLwXrLg8AZNzE2Lio+DKyd06FodpnubxiMwUJ34y7tgTW99XNmPR8+oGobNNUjXkzk/h+hwfT8d+rhK3uS7epvGcyO9m/719Mk1lnq05Gz4oTv98Q7y6xCDn4hBM7socN+dNB+Tu8kyW6HLPF2kgubMZ+shSWuEJyTRJ3iRJ/veFww/T/BWc3HPIF+TuJnfiG5ur6L8Gmb+Xu/Wfk+OSUe7rjNwzLkZ+kvnEMCP0/9UDjZQT/Wpx/1bxyV0lFOX0OZG7gUl18cYnd8PNqLh0hevYWsa8j+wRcncEr7lJw3Mva778PUSdvKFNAmkNuRvudGWOf9x0vWvrgpH774lmEUsu9pkP0s79fXQl3yCv+5J3XfhO7l5PkI2QjU1dcq0ivDD1kDui5ovvSRpG7vKuuX8bzbxmlbcXKqHr5K673lOid4SzhpC74ZbPasXbte7Vjvjc8mLTQhu0voee3N137ub1hNz0GC510wbex2VHthEt+Cit4S59cfTRryfK4KBiwsn9ymN75MlddUUaJ/Xk5Sbvuz0zpNOTu+rK1dy6qmvaPGEq9jjLyHvHyJUcuegXT5J3yoZbXtsglD6558/Jwq8Lpw2GS1ytUODFvuZ0uOWt1xgGkahYOq9LPG5h3S0feQxIuX4pf71hP7lH14TxtV4euu457l0X9/YTvXuanmMerc/w0zu7q9/HTvtlo+3LnNzdVxgFyN1xVZOHFu7c8xBK/944cidxWryFLo2jlygOWlM+XRP2p8FsTm148ZxRLv7sTX6WljQj/HsRsfr04fW2zIC6/BepSdZ2rXlDg170I75OME7JmVO0PVreeX/OanbZIJqVONEO7glJN0h+HOQYkrzjz52P9qAh4mT+mdN0n3Q1Zt337opLkbsSNJcGY7E21ECtw4dYUNs4eeduCRCKT+/OMqw+5cTz5tohoiXpKUcNFtOCu0qTe+hYeAbLZ4NxijOD1pIgQS04znDN27Dj5iSBcfwf7mDEFDu2WWLxpIsTb4LeTjagrmzsgsMtL4NNM8G7NmhVbxT7uz7HHetCXE/FMSr85D+dpu6PN8e5i836gJPczSBFdTws1zHR6T2H3FkdzqBIn/mIlg8a3AaSe5D94uH2fLrmDgoM77WnRAO+c7d5ISrtY05lpcg99NvqDNl5TrDd7LzR1kiPxQh2veamHeQuNsRsY7rKf71Ys3E1V68HifLG3EGoVZiC79xDUQS5hyIW/LzuOdA+7Quuq3iBEbubij0i6ueDxc2u7El/EhtLM6WCfLJBYem9Y2VdKV9RQ8aifAeaWtKdxCbyghlBu03tRod2aZ9t8rrMzwg7rF8tPmLvswr70O2qeoLcuw0a2gMCQAAIAAEg0GQEQO5NHh3YBgSAABAAAkCgBAIg9xKgoQgQAAJAAAgAgSYjAHJv8ujANiAABIAAEAACJRAAuZcADUWAABAAAkAACDQZgR4i9+h73kv2699jNxn8zm3j37RfSDuhktQ5lAVrCP7ErmC99TxWTXrUemyrs9Z/pKu2TKc/L7iBuqCgWmdHuli3GzNEqndxGCpsalSQezbLG0PQkplOw1VTPWN5NNbF4jMO9JXnu/O5m+27z1TK9LXpi2kR7dJVvSqcOO6qKrbBGAc1eVG13VE+WYwTHZkN3PUU/f384/T8575Ox+XfEvnMx1i+hds/Qgd+rCjNVWugszavDV/4KV33tT4mDlQn0WU1IWpbA7nrLPpM7UPbPkUbFGH7u56W62HP+Ep177s0xJU148XBMr+jhvGNeWUD0MWKeojc3agFk7t4gXw4kZQNGY9uJdSxqyNxYr2IjjOCObp0JMm9QhsyGfhCRqPEs85NHz/ZfJbef0jX7hbE2n+ABp8/m9aPJLl7bBDf/Pe9SL/48g9KAFKkSJeSMymmuNaZq6+c1AaHt9Kio9NGPbn7cLjo3/5IM4//hJ5ZyWTm1B9khyuyEBr1TGvI3UbQye+Ik3FWp5wypz6OvUwZK1/irye66GkqWW8++hwdc9tLx5X6lbgcLbNn0sQJTF99Z6QfL0+Nkzz669FO+vNEL3+blp9S51NK7i99eiHdxIRLFt363/IBfwrOrIZ4lEKSDo+liZOYCtrQaabNPDbRMtfSpGopRX02lJj7ZcndOU56UqGMR8ZF7vxUM21PhiATcr+eaam/NJ5em7udogOjkSZVS6Gqj0Wc+Ebk6mZYTpzEcT4UaYw7UrKqKVTdNsR4l3BT8yyH45ka3xDL45r7U57ctTTGisfE9fvYFDu5u68hEnL/wwRD975b68IN4nfWLKLzhqP1xX+cqXuTJDHZTIha+lgtLazULZDNu3GQD3BPz01EmxXvVGw58rrnLoRGPdAaco8ETJbSsoMsteMKokcHX6FPb9UV5Fy7eefJ/Y5ZFOdMTwmdidIZ9SYjVkDHPJTchcb6lj5aKTwF2+jcOyJBF078Vv11bgzfRc9h8o6bHyks7+jMHe3UECchsNE3tJG29F9Bi/sP0YMvjKHbbOpfpfOeF1gL5gbN5TJXqzLHKflb5D4+d0t8xaKLDInHHOTOTzQX7NVdvV7rnZjoeuKk6JgfuZaJyMQ4C+32fdR/pyoPG7eYTf3pR9LuqvaWCSZ3VQ+iwDUWb9wQLUrsMX4viN4Qk7KudQ8xufrahHUhNsp83Oe/Sk+qAjjOtXlYk62NNpJSqZCLGamiLEYd+SvO7qHi5aClno9ek55oFblz3fFH6Sq6eQrRpsEN9DEpR3qvRDSY3MUmIVI60zXg59MxW17oAlKnoeQuNNa550HoxFMiUStO9fxv9/DOGWIxJcg9ESvRTpC6trWAMUnD+h4tlrKNxE+Uu3XN7EzqSaPeyiZ5iZO7+2okK02b2fhVRe6x4EYmJWdW6jRW19o9w8SZb7BicnfpwxdDuujmhJ/OPn+eWefb9Kw3aLPcyd266dbWohQqylVulPaWIPcmrAtdXa2gBLCaLln9f6vegW2D6Jo3niDMoA1fsXmJp+pDoDXkLnb5jADX0DSi3cTc2Xt1GVLbS0HiVuTOPSUEfnJXT3cK+G0m97gbsctOknHm5FKE3J87h50OxtH++9fTrU+wius+uYuNj18CWF0ijSD32KAMyZcjd77BsuvDF3k5lIiaD3qRt5jcG7AuSpE7s1u4859bT9sHF9HiI+uFhHB2LWbnm3/GIGq+yIpqwzMNJXeLdKrYvffR8P69tGzrR9n/M8lDOpicvDnYvpP7wmHjEznjNGDqw68ceJfWMPd47BUQg5mrY263Qb3Dj4Qlovv95HQeenJ33rkXnHLmTv+yE5FLULwwYhJJT42Zk7sg9zG0RWh0y7vl4SGas+xwvgEOCVlnwZyTu1U7W7jymRfEHD8pJ5y45W3qXYF37vkd5k+oL1jDLS/IP9oocbe87iHRxyDRPlc15fnmKvdnpO/c7VLIYuymHKQHpPcs6Ybhlrep2oXeuedCxB8YoXXhIvfvGy71dG3Kdcb+vum8t2j/xefTkfl8Lco+KG554WG7+GiyvnNxwJ17LkRteaA95C512fuFrnh0ur70eKq/vnLgTA1zLVBK027XA+qybvnIFejSiHfpmJvP8zoSG5T2o8A59mlSR+Qefv+lB8Ax6XqhuxxBZtcQTwnJ5pZPy8hgu/63ipG7HMdJRVXjypB7ZvzSYMlYn/4sOVtsY5RMJM1G912kbbGb1xZqkJSmD88KawF12vWH4pb36cPnvG1GPlreTu7c7GizKzugxFO4fu9dZ6ya0L42YV04yd25NuMBl1c1lqu2JEBWC3bNpyVEy+dj1JYnGkrubYFvJO1s67enLU425PwOeCTnQU7bXfnOvUn9LxE82CTzR9IWfOc+kuhX3jbIvXJIu1lhyzLUycj32hKcdAF6ZKjrAsgdN1HiGqLjNj0VqF4X4zHNo1OnDbl14649F6KWPQByb9mAwVwgAASAABAAAnkIgNzzEMLfgQAQAAJAAAi0DAGQe8sGDOYCASAABIAAEMhDAOSehxD+DgSAABAAAkCgZQiA3Fs2YDAXCAABIAAEgEAeAj1E7i3+xCpvlJx/b1m0vOhH9G0uKd/Zl+5+DxQsmha2OV2NkvBMeWMjLbz5vQ7NalhUe4e9KVq8XV9cRL0KToZTFIwRec6XsbGN71Q7iKOC3Iukn83AAz330svOKcZRityr1YfPJEEpIkRTBolc3XF7wpVG6I6rmdoyfQ8l95zx60bugIw6pJLUqMzYOsuouvaONmz9vWG6lAseIvrKIF10gEnTJmqOlRrorUxPpqM/2kZyF2qJF/2VHnqMJSUz5Zh9+R946uWpJ+i+AGGu7o1S8ZZ6iNzdnQ4md+i5F59Blif95B5adbUa9e6886F2FXve2Z7j5dII3XEvuRfrd/pU/vg5s6KFNuV6voT4UGdNZwWKovocWQ4FuZ9FW+fupXEbm0nuneExMqUTKeTnz5abp030zadSW3zZDLmA0pUn/p3m7P/TyBhfQautIXfouau58cvouRv64nFaSuNFrhGzkXwjTbjBXOvbzqHh4ck0MInPQpaClovICLnJyRSndo3mp/wby4GupmRV099mtM81JbVq9eFLk7tLH96pGx/13tWeyzXr09vWU6XGuBrCIKqIj3P8pOhIRkOchMt9QB/AVF9c0Qk3k6/otqka4gXGr4SaW5C2eGlyl2lz5Ys2TWmtntCZ/rpIiS0V7MSzDnLnp/Zpe+gXX/6B/upOyH07yze8mD6xZx3d9D35iKbNnmq96xtoXQLYNRa8zGI6Sn2z5RqN09YabUQtx2OoqBGaCoee+eXiJqcNooCufKimZU50Ffhj2jtLf6+p8zIh9+uJHn9pPL02dzvdpxnmuRYqo7xZASFXWUVryB167n20KRZCKTHx+IJPF4hCCD5y12aa+gKJFiHXeuf3roK0+/clueXzTu4+9x9vMq98Jwsg45YvkuPepQ9v/t6iT16VwImOsTkWiqSnV0dean6zjZZTQzzz8syinTs+wSqBYXn7uUXB5L54QtqRQlcxEYEnIkMKDKoQFJliRB5yD46vULXdjXXhI3dtxJSxiDbXp2mdEHzia3gqDcfKjqyQd13menP0DYaP3O02GIJKqn380HAL0WopbqX2XX+vmXXkvSl8qYr53ftcOrb527T8VF49zfx7q8gdeu5SpS6Y3E3Zx6Lk7tIQ95wWC5Cz7SViCnjUlZazzMndWaakBDBRqASr+eIsSu5uDXifWIl+MipG7qZQDhliJv7XX1E8+At3AV1gVnZkC10ytNbdRJmTu0sdUJD5jUy5aimt4DKK7Cc7P+wn91ByNzdR6r995O4ai7wNQTi5u+eXj9yX03YZjOmZx9pmQ33O9f9Ri7kbT8Mw95i4vKPNJHKbVa0hd+i5TxNKckKCtkvkrktMFiWU/AWWeYkItyDJE0V++U6W12gid/f4mac0Y7OWc0rLvEAV2dpbuQRtqZP7dPrzghvoQMHBDT65z9hLM69ZVbB2zhJcYpo0SemocMPJXVyNRRLC5lhUTe6++VUtuUdzatN5/0kLt06iTde+RwuFvHTWWxBG7r0dNd9Qcoeee6L1fg9fJuZJIHRXqburolOyvFNTXX/yDo2ku11zeWka4vknd9VNby50K7knmvK6yz/vbWzVc/cUyiP3SGrUiHR26cMbbnmbPnnonbvLdHUsopMZRXEOT6juVV0C1D1+Bchd0QQ3bbKT+xjaIty98g50eKigBDDny5/SdTcRbf7c1+l43oDLv1dK7lKSmbS78+gdROsW0jKxBtMf3S1vey7wzt3VZ1XP3Vib6jWNNh8EudvHogi5a3fbql2WDZ9vfoWTu+FSNzeM3E3P4nx2vzGOZhxZr8lV69eNIZ/Z4s6dxo7tp3feGS647Kp4zKb/HP0Oeu4Rvsun/JDuGvOS3x2pDoUWDHWIjs8eQ7vFy1jVc3+HdgydQVNit5lTQ9xP7npgTBpQZ7re02A7NSjGsCFvOsmAtjTYyV+gFLmzKvW7+pT8i/0+skmzMVSK1aPnnrphGdZDp2mg/62IWD1lvG55bU7oQVypTnjUJzXoaXEcXKnakDd+7O8jHi1vJXdmmPx9HF+Yjp8eaJcG1Om/F13X7vdDYwt860JxiR8+RDv6xxE9HJ3W03Wmz4c8ctfmixpwawbJxlcunvkVTu6shBGgpwfdxv1SgzV5K/rVQMh1HqLlGXzdJ/cCb4RR/0gneu7mHXyLwRQv4Avp9VXpHWhbeuN7ufj7UCx4qRU4dOM79yYB0UF/w1zOTep0A23Bd+7RoIDcGzg5hUllsyn1BrlHLvRT9EoLiT2eUaFBVlG5XiF3ZKgLebO0g9zNIDulh0FBliHIhD7b23ftMRoNvXMPHSw8DwSAABAAAkAACIDcMQeAABAAAkAACPQoAji59+jAoltAAAgAASAwehEAuY/esUfPgQAQAAJAoEcRALn36MCiW0AACAABIDB6Eeghcoeee9ensZFZruvtN6rBNkZ+R5HNtPaZJClIaUhdoiilK2xHwTZqs480sm7Myn79M9I9amb7o4LcgyVf+VhBz92YsZbPr0LJvVLdal2ZixubVeeqaNHlarPbBCiq1aEv2xP/51Oh5O7vU0fJaIqmVO6aNruSkMYlNGP5Zt2rIV52EFtYzo+DR7ClR7TUmzBkPUTubjiDyR167hYwK/i2ulLd6myO77oXlC+V7NK+Fw0pz3wd87rt5fVX+210Xp9CM7ClCBROJ1tGBKYToJ055u19zdMQ78SUNpXNxcGTRKYXtNSbMFatIXfouXeg5y7yQo9hebvH0sSzovSuA7PPSFKHCqGPJWOj+WhoNts1xPW0mJGEpPzxaTz7dKuDV0N5ctdSxiqnMtfvY9PC5Ft9Oua6BnWine2T33XiGuXcHh6eTANx+leec17kGJe63Qm2aSpgVTlMT/Np2KbNh3xt9lJu6qKn9tijFioCk/HEqdoBLs12CZqL3B3XED4NcV2tTU2j6tYxn8HSwE6cNJZODvGU0ZNpYjweJbTURXrXa4n297O5InLqFrOhHi31KO3wBXs/RRt0kfUSwljBL49RUaA15A499w703OWL4PjajTR82RU0wEQ9HhyeSkJ6kassGVrJseiLW0M8Xht5me4qOO07l2HWLV8ov7xFc100YfxeEH3/Nk1JzEruJURPdA3qovK7KhCmQt9s6pNiP/qY5Z/cvTKfZU7+JdKrcp2Er9KzNGf/n/JfuqZbvog2uyHwkzZiarZzop9Px9SMhw5yD88s6Forbh3zI9cygaf+Q/TgC2PotiVnMKGgfdR/5/mJJkTaj4LrLHkPRDEW6Twk+tm2K6j/hTj2QhEjqk1Lncidfrn9Wur5E7n+J1pF7tBzLyn5mpwID9O8bfOEwMT2wUWC3FfTPKYwdoY+00SayPfZgo+eFdKR1pSnthdWuMZzuWle7uRuvaJhBmSI2/JSr4bcTcyKkrsL13yFvlQ/O4u0jdxNgZ8QMY5whbfAIKoSbnm3WFBWvS0zPyoj99gjknpPotHIrqF4THbPuI5m7GaES8yzNoOLARELgIzJvcQ6c3qGPqTUG1mVzov6tNTJGYQZqnpZ7g3S66VaQ+7Qc+9Azz2H3O0vf/M0YDsd2F9MiymW+yx4oii1ykYXubu1sysmdyNIMvjOPjBqPujUHntYAt3yzSD3eJKbJF+O3InLNoeus1LkzuyuRUs9OrlfTr+kZ1b+yngDBG74Sr0/er9QQ8kdeu6V6rl7yF245R3a3W4N8Xhh2F9MyR2dpgGfv5isWurOYnnkbpMNltKtUw7SA4PfosfVuggJzvAAAApxSURBVA23vLCFNuS75cknQmEzXnfDRqdkefcp3KZSi9vQ73ZrZ+eTe3zNYrMmc3JXNcSlnGbs8s8fQd8L21a6xAkt5+QexU2QLiYkXPlEaz4pPV+JKYZb3qYwGHjnXgSj7MlYcYkrOubcLe86uXNyD15nTnI33PJd0VLHnXvRuVL2ufaQO0HPfZfycgrSc/eR+83viYhq1TWfBFgpQTsnh4Zo/8VTpZveovxkC/QxdKbzJqn1xVwxufPqok2ErFi5s3X9Xtdsj8qp9/vB0q1KAGMUKDUmuUdNXeKGrr1TO9tP7rredeoSNl3vRPHffBrieSMYGC3PP3saf5AuGVqbV3H69zLkzkrrY6gE1Lk0243fCwPeVDd7gX01AuC0wFWHjnmy8bK55UtoqYuAOiO+JvHadVlLXVzffK2Pdi24gQ4Yo49o+eLLwfdkQ8m9ms71di2d6Lk3FBnnCauh9iZmeb7bzTU9Lygxt4LGPBD2nXuJU3tjeioNKRE82LQujIw9+M69G7iD3LuBcm1t9MrdVBz5rn6iVBtoNVVcNkNdj5B74F17TYPQ9WpLffpXm5Vt0FLHXXttw29UDHLvFtJoBwgAASAABIBAlxAAuXcJaDQDBIAAEAACQKBbCIDcu4U02gECQAAIAAEg0CUEQO5dAhrNAAEgAASAABDoFgIg924hjXaAABAAAkAACHQJAZB7DUAHZ92qwQZUCQTagUCo7Gw7ejV6rIzyIkx5YyMtZDkzOvvpla9/OkOhqtI9T+5q8opCwiK5yGbzUWtFbHrEleqY5xpY4IHOP7+qWrf6rqcX0yLaRYN7xtPWq4nWz91OplhUgY6Vf8RI8FGqIp6cRuQAP1yqOC9ULQ6jT1M+GPgmrM2Kbah6baqYZtMRh5O7d45Dzz14CrsK9Dy5xx13CYaEI+kjd4eaUaU65uEWZ0tURO79B2jw+bNp/e0foQM/3kTffKq8bXzBDw5vpUVHp416cq8Ohzz99fLjFVIyOD+9t/KK+9SEtVmxDbla6iGDZzxbxVjmrXVkqOtggJSi7SJ3Te7xlJY/Wk0denKHqn0e9dZK7mp9pnSk1laUXIXne0/SlsYgqikpXek0XTrmPn1ln16zqr8u7JCpQw0Nb13Ny6Ehzkpr6WdV/W5xEj1BOyz6zz7d6jJTM1nwf5hA6xnUj1+xh57mFXlsEOk0E81yVZtalos16jXdah0HLdUuS825P9FF1+tT07VquJppRYWiHj+56+2oZaIX5NFIn5v3UcHciUMZUGl0asoHQeVam+a68MyheGzFuPafZhl/x9JZIvUy101XdQMmk5BR50MuJXrFPzw2BPVFPuxamyKdrUsf3pivybqI12CylhTbtTTKulteT2+sr6XcOX7mCnp5DtHPNz/CVCvxUxaBFpG7WyhEV30yNZojaPKkHDX9bqf+M6/JfXLnO85Zb3+Drj5acDgMfWVTizutxdTvnkrD90dSrLo2uNqursjm1BDXhEIk0ffviwjKEH6pYtdeEJn0MacNhkyl2g9VgMVoUBdKMXSr2Ubh+NpI01odC73fqvCLUp7L4ipueR1vXSwm2kydpnUzX6Tvs2J5murBmBUo0NOa8gX6n/+I27vlGtt158lxvf8ELRBzaSMNX6bKJset1qmW6O6ZIFyHPjwXohEiNWzuR3oE8h0jDgxSzIj9xfYOyH0vBF9XQc89f37mP9Eick8FP/S78zh1qd5Z837dJHebGEgsDOGWiKyB3BUhB13Ywaff7SL3gprfiob0m+IUuT0NhlHvnoMXZf6EC37CZUPGe8FqlidgMvuUNGpLz6l4PaxjcZjmsYChgfjIJesSJ5tE0EPesSe2vs+CjPSXuvoCzH0ZBoMUWqDHNeVD4bA+79JfzxJzPJ6raV60lrjSophLfO7E86CE/nol/UgrcQvRvEUzds2OvEjJT7Qutg/q74ei5G6KUVHi0SrSqR7QHSjSzZqfaRW5x1jELviIwPOkP6NSNnK/mZ6k+St+nYF4xMhdOX1OdOo1G+51xaVbWPO7V8jdEbzmJk9PrIEZUOch6mTCmBuPHif3wvPLwCVvM2OVnV1CiWcjr3y970iT5MuRO5dvDdZfr7hjfnI/P1EmVJs1sS9E7qZkbPAhAVHzVQx9Q8ndrsWtdlglYM2l7kDF6pa/o482ZTSeWQVedTJu23w6tmoprXjSaCxUwtIgFNXd59Tv5m4y9YSpmODW/PZoiBtuee0FHrwoY2Pyx6/w5HXaYLjE1QrFqT4lB/VPzmsMz1g4r0s09788mckTStbtPZtIcflr3pLCYFSFa+9qyofJBhcGXrs6cY0td8u7Tu6c3IP116V50WGmc1Eln4Sspg9vrqXLTtCD81+lJ+U1IqnxAuzZDOFr60JujobjWJQCmOPOvQBI+Y+0iNzliy3pkzrZTdd8+jdNo1uUTQPxTNe86sp36j+zGrS/aRrPgXdFzmAs1ohTr9kMjGPPFtFSV9zYb64dIlqS7tS14JdMQF2ZT7vkeNBOemDwW/R4/jx0P+HbYBiueTNoLdWoVwN6DPeoDTtujeZGdAcjqvrr65gs+eLEm6C3kw2oU65CCuNTMa4ySKqnNOVlIGzHn7369NeF5yt1Y2sBdS63vBrsKoLtxhE9HMXN5P1UtWHx6sMbfUqDPJW5z9bKujfG0QJ5jZdxvbOOxIF46bpg7v2h0zTQX/w9gmj5vBlR7O8NJfdixjfyqZDvNMt8W50hO88JdgQBEpsq2kAzr1k1glb0XtP14Nr5p5GNQVoEw15Ir9s8a40xMtAQrycxsK6mPx7y/mx6X0bYPpB7DQNQOENdGXI3d9jKbrmGroRXKV6us+gszaMRXg1KGAjUimtvkHvkpdM/kW33PIo9kp275NuBA+7aqxwnkHuVaKIuIAAEgAAQAAINQADk3oBBgAlAAAgAASAABKpEoBC5V9kg6gICQAAIAAEgAATqRQDkXi++qB0IAAEgAASAQNcRALl3HXI0CASAABAAAkCgXgSKkzv/HGPGXnzaVO94oHYgAASAABAAAh0jUJzcWVP8U5OFw1nFtY6tQAVAAAgAASAABIBAZQgEkXukiOZIvVqZSagICAABIAAEgAAQ6ASBQHKPUq+6BFc6MQRlgQAQAAJAAAgAgWoQCCZ3Iaqy4HjnOcOrsR+1AAEgAASAABAAAgYC4eTO02CuIHq0U0EQDAUQAAJAAAgAASBQCwLh5I6o+VoGApUCASAABIAAEKgKgWByx517VdCjHiAABIAAEAAC9SAQSO6Ilq9nGFArEAACQAAIAIHqEAgid3znXh3wqAkIAAEgAASAQF0IFCd33LXXNQaoFwgAASAABIBApQgUJ/dKm0VlQAAIAAEgAASAQF0IgNzrQhb1AgEgAASAABAYIQRA7iMEPJoFAkAACAABIFAXAiD3upBFvUAACAABIAAERggBkPsIAY9mgQAQAAJAAAjUhUBF5P4FemTrLXTJfsjB1jFQmcRB+HKhDphRJxAAAkCgZxAoR+4ZcvGTO/8+ftnECLOTO3pzA1Bb5j6HUA9yDvTMGkRHgAAQAAKVI/D/IlQv7V+ma0cAAAAASUVORK5CYII=;" vertex="1" parent="1">
          <mxGeometry x="400" y="811" width="503" height="123" as="geometry" />
        </mxCell>
      </root>
    </mxGraphModel>
  </diagram>
  <diagram id="aGnLWGD9DkK3ZcOPxwTX" name="Page-2">
    <mxGraphModel dx="1434" dy="774" grid="0" gridSize="10" guides="1" tooltips="1" connect="1" arrows="1" fold="1" page="1" pageScale="1" pageWidth="850" pageHeight="1100" math="0" shadow="0">
      <root>
        <mxCell id="0" />
        <mxCell id="1" parent="0" />
        <mxCell id="AoUKGJ0PGT-XpuIL1PWL-1" value="" style="rounded=0;whiteSpace=wrap;html=1;" vertex="1" parent="1">
          <mxGeometry x="89" y="81" width="120" height="60" as="geometry" />
        </mxCell>
        <mxCell id="AoUKGJ0PGT-XpuIL1PWL-2" value="" style="sketch=0;points=[[0,0,0],[0.25,0,0],[0.5,0,0],[0.75,0,0],[1,0,0],[0,1,0],[0.25,1,0],[0.5,1,0],[0.75,1,0],[1,1,0],[0,0.25,0],[0,0.5,0],[0,0.75,0],[1,0.25,0],[1,0.5,0],[1,0.75,0]];outlineConnect=0;fontColor=#232F3E;fillColor=#8C4FFF;strokeColor=#ffffff;dashed=0;verticalLabelPosition=bottom;verticalAlign=top;align=center;html=1;fontSize=12;fontStyle=0;aspect=fixed;shape=mxgraph.aws4.resourceIcon;resIcon=mxgraph.aws4.glue;" vertex="1" parent="1">
          <mxGeometry x="89" y="81" width="33" height="33" as="geometry" />
        </mxCell>
        <mxCell id="AoUKGJ0PGT-XpuIL1PWL-3" value="" style="rounded=0;whiteSpace=wrap;html=1;" vertex="1" parent="1">
          <mxGeometry x="242" y="81" width="120" height="60" as="geometry" />
        </mxCell>
        <mxCell id="AoUKGJ0PGT-XpuIL1PWL-4" value="" style="sketch=0;points=[[0,0,0],[0.25,0,0],[0.5,0,0],[0.75,0,0],[1,0,0],[0,1,0],[0.25,1,0],[0.5,1,0],[0.75,1,0],[1,1,0],[0,0.25,0],[0,0.5,0],[0,0.75,0],[1,0.25,0],[1,0.5,0],[1,0.75,0]];outlineConnect=0;fontColor=#232F3E;fillColor=#7AA116;strokeColor=#ffffff;dashed=0;verticalLabelPosition=bottom;verticalAlign=top;align=center;html=1;fontSize=12;fontStyle=0;aspect=fixed;shape=mxgraph.aws4.resourceIcon;resIcon=mxgraph.aws4.s3;" vertex="1" parent="1">
          <mxGeometry x="242" y="81" width="33" height="33" as="geometry" />
        </mxCell>
        <mxCell id="AoUKGJ0PGT-XpuIL1PWL-5" value="" style="rounded=0;whiteSpace=wrap;html=1;" vertex="1" parent="1">
          <mxGeometry x="403" y="81" width="120" height="60" as="geometry" />
        </mxCell>
        <mxCell id="AoUKGJ0PGT-XpuIL1PWL-6" value="" style="outlineConnect=0;dashed=0;verticalLabelPosition=bottom;verticalAlign=top;align=center;html=1;shape=mxgraph.aws3.dynamo_db;fillColor=#2E73B8;gradientColor=none;" vertex="1" parent="1">
          <mxGeometry x="403" y="81" width="29.33" height="33" as="geometry" />
        </mxCell>
        <mxCell id="AoUKGJ0PGT-XpuIL1PWL-7" value="Origem" style="rounded=0;whiteSpace=wrap;html=1;" vertex="1" parent="1">
          <mxGeometry x="555" y="83" width="120" height="60" as="geometry" />
        </mxCell>
        <mxCell id="AoUKGJ0PGT-XpuIL1PWL-8" value="" style="sketch=0;outlineConnect=0;fontColor=#232F3E;gradientColor=none;fillColor=#8C4FFF;strokeColor=none;dashed=0;verticalLabelPosition=bottom;verticalAlign=top;align=center;html=1;fontSize=12;fontStyle=0;aspect=fixed;pointerEvents=1;shape=mxgraph.aws4.glue_data_catalog;" vertex="1" parent="1">
          <mxGeometry x="555" y="83" width="30.46" height="33" as="geometry" />
        </mxCell>
      </root>
    </mxGraphModel>
  </diagram>
</mxfile>
